<?xml version="1.0" encoding="utf-8"?>
<!-- Generator: Adobe Illustrator 24.1.2, SVG Export Plug-In . SVG Version: 6.00 Build 0)  -->
<svg version="1.1" id="Camada_1" xmlns="http://www.w3.org/2000/svg" xmlns:xlink="http://www.w3.org/1999/xlink" x="0px" y="0px"
	 viewBox="0 0 58.7 83.9" style="enable-background:new 0 0 58.7 83.9;" xml:space="preserve">
<style type="text/css">
	.st0{fill:#352E25;}
	.st1{fill:#DBDBCC;}
</style>
<g id="Marca_saan_3_">
	<g>
		<g>
			<g>
				<path class="st0" d="M10.5,79.9c-1.7,0-2.8-0.3-3.5-1c-0.7-0.7-1-1.8-1.1-3.3c0-0.5,0-0.9,0-1.4c0-0.4,0-0.9,0.1-1.3h2.5
					c0,0.7-0.1,1.3-0.1,1.7s0,0.9,0,1.2c0,0.7,0.2,1.2,0.5,1.5c0.3,0.3,0.9,0.4,1.6,0.4c0.8,0,1.3-0.1,1.7-0.4
					c0.4-0.3,0.5-0.8,0.6-1.5c0-0.7,0-1.4,0-2c0-0.7-0.1-1.2-0.3-1.5c-0.2-0.3-0.6-0.6-1.1-0.8l-1.8-0.5c-1.3-0.4-2.2-0.9-2.8-1.6
					c-0.6-0.7-0.8-1.7-0.9-3.1c0-0.6,0-1.2,0-1.6c0-1.6,0.4-2.7,1.1-3.3s1.9-1,3.7-1c1.6,0,2.8,0.3,3.5,1c0.7,0.7,1.1,1.8,1.1,3.3
					c0,0.2,0,0.4,0,0.7c0,0.3,0,0.7,0,1s0,0.6-0.1,0.9h-2.6c0-0.5,0-1,0-1.6s0-1,0-1.4c0-0.7-0.2-1.2-0.5-1.4
					c-0.3-0.3-0.8-0.4-1.5-0.4c-0.8,0-1.3,0.1-1.6,0.4c-0.3,0.3-0.4,0.7-0.5,1.4c0,0.2,0,0.4,0,0.7s0,0.6,0,1c0,0.7,0.1,1.3,0.3,1.7
					c0.2,0.4,0.6,0.7,1.2,0.9l1.7,0.4c1.2,0.3,2.1,0.8,2.7,1.5c0.6,0.7,0.9,1.7,0.9,3.1c0,0.4,0,0.7,0,0.9s0,0.6,0,1
					c0,1.5-0.4,2.6-1.1,3.2C13.5,79.6,12.3,79.9,10.5,79.9z"/>
			</g>
			<g>
				<path class="st0" d="M33.8,79.9c-1.2,0-2.1-0.3-2.8-0.9s-1-1.6-1.1-2.9c0-0.3,0-0.5,0-0.8c0-0.3,0-0.5,0-0.8
					c0.1-1.2,0.4-2.1,1-2.9c0.6-0.8,1.6-1.5,3-2.2c0.5-0.3,1-0.5,1.6-0.7s1.2-0.4,1.7-0.6v-3.6c0-0.7-0.2-1.2-0.5-1.5
					s-0.8-0.4-1.6-0.4c-0.6,0-1.1,0.1-1.5,0.4s-0.6,0.7-0.6,1.4c0,0.3,0,0.6,0,1c0,0.4,0,0.8,0,1.2c0,0.4,0,0.6,0,0.8h-2.7
					c0-0.8,0-1.7,0-2.7c0.1-1.5,0.5-2.5,1.2-3.2c0.7-0.7,2-1,3.7-1c1.8,0,3,0.4,3.7,1.1c0.7,0.7,1,1.9,1,3.6l0,14.6h-2.8v-1.8
					c0,0-1.1,1.2-1.5,1.5C35.3,79.7,34.6,79.9,33.8,79.9z M34.7,77.8c1.2,0,2-0.6,2.5-1.7l0-5.8c-0.4,0.2-0.9,0.3-1.3,0.5
					s-0.9,0.4-1.4,0.7c-0.7,0.4-1.2,0.8-1.4,1.3s-0.3,1.1-0.3,1.7c0,0.3,0,0.5,0,0.7s0,0.4,0,0.6c0,0.6,0.2,1.1,0.6,1.4
					C33.7,77.6,34.2,77.8,34.7,77.8z"/>
			</g>
			<g>
				<path class="st0" d="M43.3,79.7v-19h2.8v1.8c0,0,1.4-1.2,1.9-1.5c0.5-0.3,1.2-0.5,2-0.5c1.2,0,2.1,0.3,2.7,1
					c0.6,0.7,0.9,1.7,0.9,3.2v15.1h-2.8l0-15.3c0-0.6-0.2-1.1-0.4-1.4c-0.3-0.3-0.8-0.4-1.4-0.4c-0.6,0-1.2,0.2-1.7,0.5
					c-0.5,0.3-0.9,0.8-1.1,1.3v15.3L43.3,79.7C43.3,79.7,43.3,79.7,43.3,79.7z"/>
			</g>
			<g>
				<path class="st0" d="M22.7,79.9c-1.7,0-2.8-0.3-3.5-1c-0.7-0.7-1-1.8-1.1-3.3c0-0.5,0-0.9,0-1.4c0-0.4,0-0.9,0-1.3h2.5
					c0,0.7-0.1,1.3,0,1.7s0,0.9,0,1.2c0,0.7,0.2,1.2,0.5,1.5c0.3,0.3,0.9,0.4,1.6,0.4c0.8,0,1.3-0.1,1.7-0.4
					c0.4-0.3,0.5-0.8,0.5-1.5c0-0.7,0-1.4,0-2c0-0.7-0.1-1.2-0.3-1.5c-0.2-0.3-0.6-0.6-1.1-0.8l-1.8-0.5c-1.3-0.4-2.2-0.9-2.8-1.6
					c-0.6-0.7-0.9-1.7-0.9-3.1c0-0.6,0-1.2,0-1.6c0-1.6,0.4-2.7,1.1-3.3c0.7-0.7,1.9-1,3.7-1c1.6,0,2.8,0.3,3.5,1
					c0.7,0.7,1.1,1.8,1.1,3.3c0,0.2,0,0.4,0,0.7c0,0.3,0,0.7,0,1s0,0.6,0,0.9h-2.6c0-0.5,0-1,0-1.6s0-1,0-1.4c0-0.7-0.2-1.2-0.5-1.4
					c-0.3-0.3-0.8-0.4-1.5-0.4c-0.8,0-1.3,0.1-1.6,0.4c-0.3,0.3-0.5,0.7-0.5,1.4c0,0.2,0,0.4,0,0.7s0,0.6,0,1c0,0.7,0.1,1.3,0.3,1.7
					c0.2,0.4,0.6,0.7,1.2,0.9l1.7,0.4c1.2,0.3,2.1,0.8,2.7,1.5c0.6,0.7,0.9,1.7,0.9,3.1c0,0.4,0,0.7,0,0.9s0,0.6,0,1
					c0,1.5-0.4,2.6-1.1,3.2C25.7,79.6,24.5,79.9,22.7,79.9z"/>
			</g>
		</g>
	</g>
	<g>
		<path class="st0" d="M58.7,83.9H0V0h58.7V83.9z M0.6,83.3h57.5V0.6H0.6V83.3z"/>
	</g>
	<g>
		<g>
			<polygon class="st1" points="8,32.7 5.6,30.6 8,24.2 10.4,30.6 			"/>
			<path class="st0" d="M8,33.1l-2.7-2.3L8,23.3l2.7,7.4L8,33.1z M6,30.6l2,1.7l2-1.7l-2-5.5L6,30.6z"/>
		</g>
		<g>
			<path class="st1" d="M11.6,12.7c0,0-0.8-5.5,4.6-7.5c5.6-2.1,8.2,2.8,8.2,2.8"/>
			<path class="st0" d="M11.2,12.7c0-0.1-0.8-5.8,4.8-7.9c5.8-2.1,8.6,2.9,8.6,3l-0.5,0.3c-0.1-0.2-2.6-4.6-7.9-2.7
				c-5.1,1.9-4.4,7.2-4.4,7.2L11.2,12.7z"/>
		</g>
		<g>
			<ellipse transform="matrix(0.939 -0.344 0.344 0.939 -3.0547 7.2624)" class="st1" cx="18.9" cy="12.2" rx="11.8" ry="2.5"/>
			<path class="st0" d="M9.8,17.3c-1.3,0-2.1-0.3-2.3-0.9c-0.7-1.8,4.7-4.8,10.4-6.9s11.7-3.2,12.4-1.5l0,0
				c0.6,1.8-4.7,4.8-10.4,6.9c-3,1.1-5.9,1.9-8.2,2.2C11,17.2,10.4,17.3,9.8,17.3z M28.1,7.9c-1.9,0-5.4,0.7-9.9,2.3
				c-6.7,2.4-10.3,5.1-10,6c0.1,0.3,0.9,0.6,3.5,0.3c2.2-0.3,5.1-1.1,8-2.2c6.7-2.4,10.3-5.1,10-6C29.6,8,29,7.9,28.1,7.9z"/>
		</g>
		<g>
			<polygon class="st0" points="32.3,44.2 24.6,41.1 23.6,51.2 20,51.1 17.6,37.3 20.2,34.2 32.7,34.4 33.9,37 			"/>
		</g>
		<g>
			<g>
				<polygon class="st1" points="23.9,21.5 25.9,16.9 32.1,18.4 46.3,33.3 46.3,36.2 32,36.5 				"/>
			</g>
			<g>
				<path class="st0" d="M26.1,17.2l5.9,1.5L46,33.5v2.5l-13.9,0.2l-7.9-14.7L26.1,17.2 M25.8,16.5l-2.2,5l8.2,15.3l14.8-0.3v-3.3
					L32.3,18.1L25.8,16.5L25.8,16.5z"/>
			</g>
		</g>
		<g>
			<g>
				<polygon class="st0" points="46,52.6 37.7,50 46.6,41.2 46.6,36.5 33.4,36.5 28.8,52.5 31,55.4 46.2,55.4 				"/>
			</g>
		</g>
		<g>
			<polygon class="st0" points="45.3,53.9 48.1,53.9 49,52.4 54.2,55.4 46.2,55.4 			"/>
		</g>
		<g>
			<polyline class="st0" points="22.6,49.7 22.6,55.4 14.8,55.4 21.1,52.7 21.1,49.8 			"/>
		</g>
		<g>
			<g>
				<polygon class="st1" points="17.1,18.8 15.4,18.2 15.7,13.1 21.1,11.1 23.4,14.2 26.1,16.8 24.5,19.8 21.4,17.8 18.7,19.9 				
					"/>
			</g>
			<g>
				<path class="st0" d="M21,11.4l2.2,2.9l0,0l0,0l2.5,2.5l-1.3,2.5l-2.7-1.7l-0.4-0.2L21,17.6l-2.4,1.8l-1.3-0.9l-0.1,0l-0.1,0
					L15.7,18l0.3-4.7L21,11.4 M21.2,10.7l-5.8,2.2l-0.4,5.5l1.9,0.6l1.7,1.2l2.7-2.1l3.3,2.1l1.8-3.4L23.7,14L21.2,10.7L21.2,10.7z"
					/>
			</g>
		</g>
		<g>
			<polygon class="st1" points="29.4,21.8 25.5,20.3 19.5,28.6 11.1,33.7 5.9,34.2 5.9,37.5 9,38.1 11.9,35 21,32.3 29.2,24.9 			
				"/>
			<path class="st0" d="M9.1,38.5l-3.6-0.7V34l5.4-0.6l8.3-5l6.1-8.5l4.3,1.6l-0.2,3.5l-8.3,7.5L12,35.3L9.1,38.5z M6.2,37.3
				l2.8,0.5l2.8-3.1l9.2-2.7l8-7.2l0.2-2.8l-3.5-1.3l-5.9,8.2l-8.5,5.1l-0.1,0l-4.9,0.5L6.2,37.3C6.2,37.3,6.2,37.3,6.2,37.3z"/>
		</g>
		<g>
			<rect x="7.7" y="28.7" class="st0" width="0.6" height="4.9"/>
		</g>
		<g>
			<path class="st0" d="M18.3,11.8c0,0,0.4,2.4,2,3.1c1.8,0.8,3.2,0.3,3.2,0.3l2.7,2c0,0,1.6-2.3,1.2-4.1c-0.6-3.2-4.5-3.1-4.5-3.1
				L18.3,11.8z"/>
		</g>
		<g>
			<path class="st0" d="M16,12.7l-2.1,0.8c0,0-0.4,5.3,1.2,7.1c3.6,4.1,8.8-1.4,8.8-1.4l-2.5-1.8L19,19.2l-1.6-2.4l-1.3,0.6L16,12.7
				z"/>
		</g>
		<g>
			<polygon class="st0" points="21.7,25.1 26.8,30.5 32,25.9 32,20.4 25,18.3 			"/>
		</g>
		<g>
			<polygon class="st0" points="8.8,37.8 7.1,37.8 5.8,40.1 7.8,51 8.2,51 10.3,40.1 			"/>
		</g>
	</g>
</g>
</svg>
