<?xml version="1.0" encoding="utf-8"?>
<!-- Generator: Adobe Illustrator 23.0.3, SVG Export Plug-In . SVG Version: 6.00 Build 0)  -->
<svg version="1.1" id="Camada_1" xmlns="http://www.w3.org/2000/svg" xmlns:xlink="http://www.w3.org/1999/xlink" x="0px" y="0px"
	 viewBox="0 0 58.71 83.95" style="enable-background:new 0 0 58.71 83.95;" xml:space="preserve">
<style type="text/css">
	.st0{fill:#352E25;}
	.st1{fill:#DBDBCC;}
</style>
<g id="Marca_saan_3_">
	<g>
		<g>
			<g>
				<path class="st0" d="M10.53,79.9c-1.66,0-2.83-0.34-3.51-1.01c-0.67-0.67-1.04-1.78-1.11-3.32c-0.02-0.48-0.03-0.94-0.02-1.38
					c0.01-0.43,0.03-0.86,0.05-1.28h2.53c-0.04,0.67-0.06,1.25-0.05,1.72s0.02,0.88,0.02,1.22c0.02,0.72,0.19,1.21,0.52,1.49
					c0.33,0.27,0.85,0.41,1.56,0.41c0.78,0,1.34-0.14,1.69-0.43c0.35-0.28,0.53-0.77,0.55-1.47c0.02-0.72,0.02-1.38,0-1.99
					c-0.02-0.67-0.13-1.19-0.32-1.53c-0.19-0.35-0.57-0.61-1.14-0.77l-1.8-0.51c-1.29-0.36-2.21-0.87-2.77-1.55
					c-0.56-0.67-0.85-1.71-0.87-3.1c-0.02-0.61-0.02-1.15,0-1.61c0.02-1.56,0.38-2.68,1.09-3.35s1.94-1.01,3.71-1.01
					c1.64,0,2.81,0.33,3.51,1c0.7,0.66,1.06,1.77,1.11,3.3c0,0.17,0,0.42,0,0.74c0,0.33-0.01,0.66-0.02,1.01s-0.03,0.64-0.05,0.87
					h-2.59c0.02-0.48,0.03-1.01,0.03-1.58s0-1.02,0-1.36c-0.02-0.67-0.17-1.15-0.46-1.42c-0.28-0.27-0.8-0.41-1.53-0.41
					c-0.76,0-1.28,0.13-1.56,0.4c-0.28,0.26-0.45,0.74-0.49,1.44c0,0.19-0.01,0.43-0.02,0.71s-0.02,0.62-0.02,1
					c0.02,0.72,0.12,1.29,0.28,1.72c0.17,0.43,0.58,0.73,1.23,0.9l1.71,0.44c1.22,0.32,2.13,0.82,2.72,1.5
					c0.59,0.69,0.89,1.71,0.89,3.08c0,0.36,0,0.67,0,0.93s-0.01,0.58-0.03,0.96c-0.04,1.5-0.42,2.58-1.14,3.24
					C13.54,79.57,12.3,79.9,10.53,79.9z"/>
			</g>
			<g>
				<path class="st0" d="M33.82,79.87c-1.22,0-2.14-0.31-2.75-0.93s-0.97-1.6-1.07-2.92c-0.02-0.25-0.03-0.51-0.03-0.77
					c0-0.26,0-0.52,0-0.77c0.08-1.16,0.41-2.13,0.96-2.91c0.56-0.78,1.55-1.5,2.99-2.15c0.51-0.25,1.04-0.49,1.61-0.71
					s1.15-0.43,1.74-0.62v-3.57c0-0.67-0.16-1.16-0.49-1.45s-0.85-0.44-1.56-0.44c-0.63,0-1.13,0.13-1.49,0.38s-0.56,0.71-0.6,1.36
					c0,0.27-0.01,0.62-0.02,1.03c-0.01,0.41-0.01,0.8,0,1.17c0.01,0.37,0.02,0.64,0.02,0.81h-2.69c-0.04-0.82-0.05-1.71-0.03-2.66
					c0.06-1.47,0.45-2.55,1.17-3.24c0.72-0.68,1.96-1.03,3.73-1.03c1.79,0,3.02,0.36,3.7,1.09c0.67,0.73,1.01,1.91,1.01,3.56
					l-0.03,14.57H37.2v-1.8c0,0-1.07,1.15-1.5,1.5C35.27,79.7,34.64,79.87,33.82,79.87z M34.74,77.79c1.18,0,2-0.57,2.47-1.71
					l0.03-5.85c-0.44,0.15-0.88,0.31-1.31,0.49s-0.91,0.43-1.44,0.74c-0.7,0.38-1.15,0.82-1.36,1.33s-0.33,1.07-0.35,1.71
					c0,0.3,0,0.54,0,0.73s0.01,0.39,0.03,0.6c0.04,0.61,0.23,1.09,0.57,1.44C33.72,77.61,34.17,77.79,34.74,77.79z"/>
			</g>
			<g>
				<path class="st0" d="M43.27,79.65V60.69h2.81v1.8c0,0,1.39-1.19,1.9-1.53c0.51-0.35,1.17-0.52,1.99-0.52c1.2,0,2.1,0.33,2.69,1
					c0.59,0.66,0.89,1.72,0.89,3.18v15.05h-2.78L50.74,64.4c0-0.63-0.15-1.1-0.44-1.39c-0.3-0.29-0.76-0.44-1.39-0.44
					c-0.59,0-1.15,0.16-1.69,0.47c-0.54,0.32-0.91,0.76-1.12,1.33v15.3h-2.83C43.27,79.67,43.27,79.65,43.27,79.65z"/>
			</g>
			<g>
				<path class="st0" d="M22.71,79.9c-1.66,0-2.83-0.34-3.51-1.01c-0.67-0.67-1.04-1.78-1.11-3.32c-0.02-0.48-0.03-0.94-0.02-1.38
					c0.01-0.43,0.03-0.86,0.05-1.28h2.53c-0.04,0.67-0.06,1.25-0.05,1.72s0.02,0.88,0.02,1.22c0.02,0.72,0.19,1.21,0.52,1.49
					c0.33,0.27,0.85,0.41,1.56,0.41c0.78,0,1.34-0.14,1.69-0.43c0.35-0.28,0.53-0.77,0.55-1.47c0.02-0.72,0.02-1.38,0-1.99
					c-0.02-0.67-0.13-1.19-0.32-1.53c-0.19-0.35-0.57-0.61-1.14-0.77l-1.8-0.51c-1.29-0.36-2.21-0.87-2.77-1.55
					c-0.56-0.67-0.85-1.71-0.87-3.1c-0.02-0.61-0.02-1.15,0-1.61c0.02-1.56,0.38-2.68,1.09-3.35c0.71-0.67,1.94-1.01,3.71-1.01
					c1.64,0,2.81,0.33,3.51,1c0.7,0.66,1.06,1.77,1.11,3.3c0,0.17,0,0.42,0,0.74c0,0.33-0.01,0.66-0.02,1.01s-0.03,0.64-0.05,0.87
					H24.8c0.02-0.48,0.03-1.01,0.03-1.58s0-1.02,0-1.36c-0.02-0.67-0.17-1.15-0.46-1.42c-0.28-0.27-0.8-0.41-1.53-0.41
					c-0.76,0-1.28,0.13-1.56,0.4c-0.28,0.26-0.45,0.74-0.49,1.44c0,0.19-0.01,0.43-0.02,0.71s-0.02,0.62-0.02,1
					c0.02,0.72,0.12,1.29,0.28,1.72c0.17,0.43,0.58,0.73,1.23,0.9l1.71,0.44c1.22,0.32,2.13,0.82,2.72,1.5
					c0.59,0.69,0.89,1.71,0.89,3.08c0,0.36,0,0.67,0,0.93s-0.01,0.58-0.03,0.96c-0.04,1.5-0.42,2.58-1.14,3.24
					C25.72,79.57,24.48,79.9,22.71,79.9z"/>
			</g>
		</g>
	</g>
	<g>
		<path class="st0" d="M58.71,83.95H0V0h58.71V83.95z M0.6,83.35h57.51V0.6H0.6V83.35z"/>
	</g>
	<g>
		<g>
			<polygon class="st1" points="7.97,32.68 5.62,30.65 7.99,24.21 10.35,30.65 			"/>
			<path class="st0" d="M7.97,33.07l-2.7-2.33l2.71-7.4l2.72,7.4L7.97,33.07z M5.98,30.56l2,1.72L10,30.56l-2.01-5.49L5.98,30.56z"
				/>
		</g>
		<g>
			<path class="st1" d="M11.55,12.66c0,0-0.81-5.53,4.6-7.54c5.57-2.07,8.23,2.83,8.23,2.83"/>
			<path class="st0" d="M11.24,12.7c-0.01-0.06-0.78-5.81,4.8-7.87c5.75-2.14,8.59,2.93,8.62,2.98l-0.55,0.3
				c-0.1-0.18-2.61-4.64-7.85-2.69c-5.11,1.9-4.4,7.15-4.39,7.2L11.24,12.7z"/>
		</g>
		<g>
			<ellipse transform="matrix(0.939 -0.344 0.344 0.939 -3.0545 7.2623)" class="st1" cx="18.94" cy="12.24" rx="11.79" ry="2.53"/>
			<path class="st0" d="M9.83,17.29c-1.3,0-2.07-0.29-2.28-0.87c-0.65-1.77,4.74-4.8,10.4-6.88S29.69,6.3,30.34,8.07l0,0
				c0.65,1.77-4.74,4.8-10.4,6.88c-2.98,1.09-5.88,1.87-8.16,2.19C11.03,17.24,10.38,17.29,9.83,17.29z M28.12,7.87
				c-1.91,0-5.44,0.67-9.94,2.32c-6.66,2.44-10.31,5.13-9.99,5.99c0.1,0.27,0.94,0.63,3.49,0.27c2.23-0.31,5.08-1.08,8.02-2.16
				c6.66-2.44,10.31-5.13,9.99-5.99C29.59,8.03,29.04,7.87,28.12,7.87z"/>
		</g>
		<g>
			<polygon class="st0" points="32.29,44.22 24.62,41.13 23.58,51.24 20.01,51.14 17.61,37.3 20.16,34.19 32.74,34.36 33.9,37.05 
							"/>
		</g>
		<g>
			<g>
				<polygon class="st1" points="23.91,21.47 25.92,16.86 32.11,18.41 46.33,33.35 46.33,36.22 31.96,36.46 				"/>
			</g>
			<g>
				<path class="st0" d="M26.1,17.21l5.86,1.47l14.08,14.79v2.46l-13.9,0.23l-7.9-14.71L26.1,17.21 M25.75,16.51l-2.17,4.97
					l8.21,15.28l14.84-0.25v-3.28L32.27,18.14L25.75,16.51L25.75,16.51z"/>
			</g>
		</g>
		<g>
			<g>
				<polygon class="st0" points="46.04,52.61 37.68,49.99 46.63,41.18 46.63,36.51 33.38,36.51 28.82,52.47 31,55.4 46.18,55.4 				
					"/>
			</g>
		</g>
		<g>
			<polygon class="st0" points="45.27,53.91 48.1,53.91 48.99,52.43 54.15,55.4 46.18,55.4 			"/>
		</g>
		<g>
			<polyline class="st0" points="22.59,49.74 22.59,55.4 14.75,55.4 21.1,52.73 21.1,49.81 			"/>
		</g>
		<g>
			<g>
				<polygon class="st1" points="17.12,18.79 15.41,18.23 15.73,13.13 21.1,11.08 23.43,14.18 26.08,16.84 24.55,19.78 21.36,17.75 
					18.66,19.85 				"/>
			</g>
			<g>
				<path class="st0" d="M20.99,11.44l2.19,2.9l0.02,0.03l0.03,0.03l2.48,2.49l-1.29,2.46l-2.74-1.74l-0.35-0.23L21,17.64
					l-2.36,1.83l-1.33-0.91l-0.07-0.05l-0.08-0.03l-1.45-0.47L16,13.33L20.99,11.44 M21.2,10.73l-5.76,2.2l-0.35,5.51l1.89,0.62
					l1.69,1.16l2.7-2.1l3.29,2.09l1.79-3.42L23.66,14L21.2,10.73L21.2,10.73z"/>
			</g>
		</g>
		<g>
			<polygon class="st1" points="29.36,21.78 25.49,20.33 19.46,28.65 11.08,33.67 5.88,34.21 5.88,37.52 9.04,38.14 11.85,34.98 
				21.03,32.25 29.18,24.9 			"/>
			<path class="st0" d="M9.15,38.47l-3.57-0.7v-3.82l5.4-0.56l8.28-4.95l6.13-8.45l4.29,1.6l-0.21,3.47l-8.29,7.47l-9.16,2.73
				L9.15,38.47z M6.18,37.28l2.76,0.54l2.75-3.1l9.2-2.74l8.01-7.22l0.17-2.79l-3.45-1.29l-5.93,8.18l-8.49,5.08l-0.07,0.01
				L6.2,34.47v2.81C6.2,37.28,6.18,37.28,6.18,37.28z"/>
		</g>
		<g>
			<rect x="7.69" y="28.72" class="st0" width="0.6" height="4.95"/>
		</g>
		<g>
			<path class="st0" d="M18.33,11.83c0,0,0.42,2.36,2,3.1c1.76,0.82,3.2,0.31,3.2,0.31l2.67,1.99c0,0,1.6-2.26,1.24-4.08
				c-0.63-3.18-4.5-3.1-4.5-3.1L18.33,11.83z"/>
		</g>
		<g>
			<path class="st0" d="M16.01,12.72l-2.13,0.82c0,0-0.45,5.28,1.19,7.13c3.58,4.05,8.82-1.37,8.82-1.37l-2.49-1.84l-2.38,1.78
				l-1.59-2.37l-1.29,0.59L16.01,12.72z"/>
		</g>
		<g>
			<polygon class="st0" points="21.7,25.14 26.76,30.55 31.97,25.9 31.97,20.39 24.99,18.32 			"/>
		</g>
		<g>
			<polygon class="st0" points="8.81,37.84 7.12,37.83 5.79,40.1 7.78,50.95 8.22,50.95 10.26,40.1 			"/>
		</g>
	</g>
</g>
</svg>
