<?xml version="1.0" encoding="utf-8"?>
<!-- Generator: Adobe Illustrator 23.0.3, SVG Export Plug-In . SVG Version: 6.00 Build 0)  -->
<svg version="1.1" id="Camada_1" xmlns="http://www.w3.org/2000/svg" xmlns:xlink="http://www.w3.org/1999/xlink" x="0px" y="0px"
	 viewBox="0 0 306.7 187.36" style="enable-background:new 0 0 306.7 187.36;" xml:space="preserve">
<style type="text/css">
	.st0{fill:#738737;}
	.st1{fill:#F6F7F4;}
</style>
<g id="Marca_Ssan">
	<g>
		<path class="st0" d="M15.89,138.84c-5.59,0-9.52-1.13-11.79-3.4c-2.27-2.27-3.5-5.98-3.72-11.15c-0.07-1.63-0.09-3.17-0.05-4.62
			c0.03-1.45,0.09-2.88,0.16-4.3h8.5c-0.14,2.27-0.2,4.2-0.16,5.79c0.03,1.59,0.05,2.96,0.05,4.09c0.07,2.41,0.65,4.07,1.75,4.99
			s2.85,1.38,5.26,1.38c2.62,0,4.51-0.48,5.68-1.43c1.17-0.96,1.79-2.6,1.86-4.94c0.07-2.41,0.07-4.64,0-6.69
			c-0.07-2.26-0.43-3.98-1.06-5.15c-0.64-1.17-1.91-2.04-3.82-2.6l-6.05-1.7c-4.32-1.2-7.42-2.94-9.29-5.2
			c-1.88-2.26-2.85-5.73-2.92-10.41c-0.07-2.05-0.07-3.86,0-5.42c0.07-5.24,1.29-8.99,3.66-11.26c2.37-2.27,6.53-3.4,12.48-3.4
			c5.52,0,9.45,1.12,11.79,3.35c2.34,2.23,3.57,5.93,3.72,11.1c0,0.57,0,1.4,0,2.5s-0.02,2.23-0.05,3.4
			c-0.04,1.17-0.09,2.14-0.16,2.92H23c0.07-1.63,0.11-3.4,0.11-5.31c0-1.91,0-3.43,0-4.57c-0.07-2.26-0.58-3.86-1.54-4.78
			c-0.96-0.92-2.67-1.38-5.15-1.38c-2.55,0-4.3,0.44-5.26,1.33s-1.5,2.49-1.65,4.83c0,0.64-0.02,1.43-0.05,2.39
			c-0.04,0.96-0.05,2.07-0.05,3.35c0.07,2.41,0.39,4.34,0.96,5.79c0.57,1.45,1.95,2.46,4.14,3.03l5.74,1.49
			c4.11,1.06,7.15,2.75,9.13,5.04c1.98,2.3,2.97,5.75,2.97,10.35c0,1.21,0,2.25,0,3.13c0,0.89-0.04,1.97-0.11,3.24
			c-0.14,5.03-1.42,8.66-3.82,10.89C26.01,137.73,21.84,138.84,15.89,138.84z"/>
	</g>
	<g>
		<path class="st0" d="M94.16,138.74c-4.11,0-7.19-1.04-9.24-3.13c-2.05-2.09-3.26-5.36-3.61-9.82c-0.07-0.85-0.11-1.72-0.11-2.6
			s0-1.75,0-2.6c0.28-3.89,1.36-7.15,3.24-9.77c1.88-2.62,5.22-5.03,10.04-7.22c1.7-0.85,3.51-1.65,5.42-2.39
			c1.91-0.74,3.86-1.43,5.84-2.07v-12c0-2.26-0.55-3.89-1.65-4.89c-1.1-0.99-2.85-1.49-5.26-1.49c-2.12,0-3.79,0.43-4.99,1.27
			c-1.2,0.85-1.88,2.37-2.02,4.57c0,0.92-0.02,2.07-0.05,3.45c-0.04,1.38-0.04,2.69,0,3.93c0.03,1.24,0.05,2.14,0.05,2.71h-9.03
			c-0.14-2.76-0.18-5.73-0.11-8.92c0.21-4.95,1.52-8.58,3.93-10.89c2.41-2.3,6.58-3.45,12.53-3.45c6.02,0,10.16,1.22,12.43,3.66
			c2.27,2.44,3.4,6.42,3.4,11.95L114.86,138h-9.35v-6.05c0,0-3.59,3.88-5.04,5.05C99.02,138.15,96.92,138.74,94.16,138.74z
			 M97.24,131.73c3.96,0,6.73-1.91,8.28-5.73l0.11-19.65c-1.49,0.5-2.96,1.04-4.41,1.65c-1.45,0.6-3.06,1.43-4.83,2.5
			c-2.34,1.27-3.86,2.76-4.57,4.46s-1.1,3.61-1.17,5.74c0,0.99,0,1.8,0,2.44s0.03,1.31,0.11,2.02c0.14,2.05,0.78,3.66,1.91,4.83
			C93.8,131.14,95.33,131.73,97.24,131.73z"/>
	</g>
	<g>
		<path class="st0" d="M125.91,137.99V74.27h9.45v6.05c0,0,4.67-3.98,6.37-5.15s3.93-1.75,6.69-1.75c4.03,0,7.04,1.12,9.03,3.35
			c1.98,2.23,2.97,5.79,2.97,10.67v50.55h-9.35l-0.11-51.29c0-2.12-0.5-3.68-1.49-4.67s-2.55-1.49-4.67-1.49
			c-1.98,0-3.88,0.53-5.68,1.59c-1.81,1.06-3.06,2.55-3.77,4.46v51.4L125.91,137.99L125.91,137.99z"/>
	</g>
	<g>
		<path class="st0" d="M56.82,138.84c-5.59,0-9.52-1.13-11.79-3.4c-2.27-2.27-3.5-5.98-3.72-11.15c-0.07-1.63-0.09-3.17-0.05-4.62
			c0.03-1.45,0.09-2.88,0.16-4.3h8.5c-0.14,2.27-0.2,4.2-0.16,5.79c0.03,1.59,0.05,2.96,0.05,4.09c0.07,2.41,0.65,4.07,1.75,4.99
			s2.85,1.38,5.26,1.38c2.62,0,4.51-0.48,5.68-1.43c1.17-0.96,1.79-2.6,1.86-4.94c0.07-2.41,0.07-4.64,0-6.69
			c-0.07-2.26-0.43-3.98-1.06-5.15c-0.64-1.17-1.91-2.04-3.82-2.6l-6.05-1.7c-4.32-1.2-7.42-2.94-9.29-5.2
			c-1.88-2.26-2.85-5.73-2.92-10.41c-0.07-2.05-0.07-3.86,0-5.42c0.07-5.24,1.29-8.99,3.66-11.26c2.37-2.27,6.53-3.4,12.48-3.4
			c5.52,0,9.45,1.12,11.79,3.35c2.34,2.23,3.57,5.93,3.72,11.1c0,0.57,0,1.4,0,2.5s-0.02,2.23-0.05,3.4
			c-0.04,1.17-0.09,2.14-0.16,2.92h-8.71c0.07-1.63,0.11-3.4,0.11-5.31c0-1.91,0-3.43,0-4.57c-0.07-2.26-0.58-3.86-1.54-4.78
			s-2.67-1.38-5.15-1.38c-2.55,0-4.3,0.44-5.26,1.33c-0.96,0.89-1.5,2.49-1.65,4.83c0,0.64-0.02,1.43-0.05,2.39
			c-0.04,0.96-0.05,2.07-0.05,3.35c0.07,2.41,0.39,4.34,0.96,5.79c0.57,1.45,1.95,2.46,4.14,3.03l5.74,1.49
			c4.11,1.06,7.15,2.75,9.13,5.04c1.98,2.3,2.97,5.75,2.97,10.35c0,1.21,0,2.25,0,3.13c0,0.89-0.04,1.97-0.11,3.24
			c-0.14,5.03-1.42,8.66-3.82,10.89C66.95,137.73,62.77,138.84,56.82,138.84z"/>
	</g>
	<g>
		<g>
			<polygon class="st1" points="180.3,76.62 173.96,71.15 180.34,53.76 186.72,71.15 			"/>
		</g>
		<g>
			<path class="st0" d="M180.3,77.68l-7.29-6.28l7.32-19.97l7.33,19.97L180.3,77.68z M174.91,70.91l5.4,4.66l5.47-4.66l-5.44-14.81
				L174.91,70.91z"/>
		</g>
	</g>
	<g>
		<g>
			<path class="st1" d="M189.96,22.56c0,0-2.18-14.94,12.41-20.35c15.03-5.58,22.23,7.65,22.23,7.65"/>
		</g>
		<g>
			<path class="st0" d="M189.12,22.68c-0.02-0.15-2.1-15.68,12.95-21.26c15.53-5.77,23.19,7.9,23.27,8.03l-1.48,0.82
				c-0.27-0.49-7.05-12.52-21.2-7.27c-13.8,5.12-11.89,19.31-11.87,19.44L189.12,22.68z"/>
		</g>
	</g>
	<g>
		<g>
			
				<ellipse transform="matrix(0.939 -0.344 0.344 0.939 5.4351 73.5203)" class="st1" cx="209.92" cy="21.44" rx="31.84" ry="6.83"/>
		</g>
		<g>
			<path class="st0" d="M185.3,35.08c-3.52,0-5.59-0.79-6.17-2.35c-1.76-4.78,12.8-12.96,28.09-18.57s31.7-8.77,33.47-3.99l0,0
				c1.76,4.78-12.8,12.96-28.09,18.57c-8.05,2.95-15.87,5.05-22.03,5.92C188.56,34.94,186.8,35.08,185.3,35.08z M234.71,9.65
				c-5.16,0-14.69,1.82-26.83,6.27c-17.98,6.59-27.83,13.86-26.98,16.17c0.27,0.72,2.55,1.69,9.42,0.72
				c6.03-0.85,13.72-2.92,21.64-5.82c17.98-6.59,27.83-13.86,26.98-16.17C238.66,10.07,237.19,9.65,234.71,9.65z"/>
		</g>
	</g>
	<g>
		<g>
			<polygon class="st0" points="245.96,107.8 225.26,99.44 222.45,126.76 212.8,126.49 206.33,89.11 213.2,80.7 247.17,81.17 
				250.32,88.44 			"/>
		</g>
	</g>
	<g>
		<g>
			<g>
				<polygon class="st1" points="223.34,46.35 228.78,33.91 245.48,38.1 283.89,78.43 283.89,86.19 245.08,86.83 				"/>
			</g>
		</g>
		<g>
			<g>
				<path class="st0" d="M229.24,34.86l15.81,3.96l38.03,39.94v6.65l-37.52,0.62l-21.33-39.71L229.24,34.86 M228.31,32.97
					l-5.86,13.42l22.16,41.25l40.08-0.67v-8.86L245.9,37.38L228.31,32.97L228.31,32.97z"/>
			</g>
		</g>
	</g>
	<g>
		<g>
			<polygon class="st0" points="283.08,130.45 260.51,123.39 284.69,99.59 284.69,86.97 248.91,86.97 236.58,130.08 242.48,137.98 
				283.48,137.98 			"/>
		</g>
	</g>
	<g>
		<g>
			<polygon class="st0" points="281.01,133.97 288.64,133.97 291.06,129.96 304.99,137.98 283.48,137.98 			"/>
		</g>
	</g>
	<g>
		<g>
			<polyline class="st0" points="219.77,122.69 219.77,137.98 198.6,137.98 215.75,130.77 215.75,122.89 			"/>
		</g>
	</g>
	<g>
		<g>
			<g>
				<polygon class="st1" points="204.99,39.12 200.38,37.61 201.24,23.85 215.74,18.31 222.04,26.69 229.2,33.85 225.05,41.8 
					216.44,36.33 209.15,41.99 				"/>
			</g>
		</g>
		<g>
			<g>
				<path class="st0" d="M215.46,19.28l5.9,7.84l0.07,0.09l0.08,0.08l6.71,6.71l-3.47,6.65l-7.4-4.7l-0.96-0.61l-0.9,0.7L209.12,41
					l-3.58-2.47l-0.19-0.13l-0.22-0.07l-3.91-1.28l0.8-12.62L215.46,19.28 M216.02,17.35l-15.54,5.94l-0.94,14.89l5.09,1.67
					l4.56,3.14l7.3-5.67l8.88,5.64l4.82-9.25l-7.54-7.54L216.02,17.35L216.02,17.35z"/>
			</g>
		</g>
	</g>
	<g>
		<polygon class="st1" points="238.06,47.19 227.61,43.28 211.33,65.75 188.68,79.3 174.64,80.77 174.64,89.71 183.19,91.38 
			190.76,82.84 215.55,75.46 237.56,55.63 		"/>
	</g>
	<g>
		<path class="st0" d="M183.48,92.25l-9.64-1.88V80.05l14.58-1.53l22.35-13.38l16.54-22.82l11.58,4.33l-0.56,9.36l-22.39,20.17
			l-24.74,7.36L183.48,92.25z M175.45,89.05l7.44,1.45l7.42-8.37l24.84-7.39l21.63-19.49l0.45-7.53l-9.32-3.48l-16.02,22.1
			l-22.94,13.73l-0.18,0.02l-13.32,1.39L175.45,89.05L175.45,89.05z"/>
	</g>
	<g>
		<g>
			<rect x="179.54" y="65.95" class="st0" width="1.61" height="13.38"/>
		</g>
	</g>
	<g>
		<g>
			<path class="st0" d="M208.28,20.34c0,0,1.13,6.37,5.41,8.36c4.74,2.2,8.64,0.83,8.64,0.83l7.2,5.37c0,0,4.32-6.11,3.35-11.01
				c-1.7-8.58-12.14-8.36-12.14-8.36L208.28,20.34z"/>
		</g>
	</g>
	<g>
		<g>
			<path class="st0" d="M202.01,22.72l-5.76,2.2c0,0-1.21,14.25,3.22,19.26c9.66,10.94,23.82-3.7,23.82-3.7l-6.73-4.97l-6.43,4.81
				l-4.29-6.41l-3.48,1.6L202.01,22.72z"/>
		</g>
	</g>
	<g>
		<g>
			<polygon class="st0" points="217.36,56.27 231.02,70.89 245.09,58.34 245.09,43.45 226.25,37.84 			"/>
		</g>
	</g>
	<g>
		<g>
			<polygon class="st0" points="182.56,90.58 177.98,90.54 174.41,96.68 179.79,125.96 180.96,125.96 186.47,96.68 			"/>
		</g>
	</g>
	<g>
		<path class="st0" d="M3.35,163.89c-1.11,0-1.93-0.23-2.43-0.67c-0.51-0.45-0.76-1.19-0.78-2.23c-0.02-0.98-0.04-1.9-0.04-2.77
			s-0.01-1.74,0-2.61s0.02-1.8,0.04-2.79c0.01-1,0.27-1.73,0.78-2.18s1.31-0.68,2.41-0.68c1.08,0,1.88,0.23,2.39,0.7
			s0.78,1.19,0.82,2.18c0.01,0.36,0.02,0.73,0.02,1.09s-0.01,0.73-0.03,1.09H4.58c0.01-0.39,0.02-0.77,0.02-1.14
			c0.01-0.38,0-0.76-0.01-1.14c-0.01-0.43-0.11-0.73-0.31-0.9c-0.19-0.17-0.51-0.26-0.95-0.26c-0.43,0-0.75,0.09-0.94,0.26
			s-0.3,0.47-0.31,0.9c-0.02,1.02-0.04,1.98-0.04,2.86c-0.01,0.88-0.01,1.77,0,2.65c0.01,0.89,0.02,1.84,0.04,2.85
			c0.01,0.43,0.11,0.74,0.31,0.91c0.19,0.18,0.51,0.26,0.96,0.26s0.78-0.09,0.98-0.26c0.2-0.18,0.31-0.48,0.33-0.91
			c0.01-0.38,0.02-0.74,0.02-1.08c0-0.35-0.01-0.78-0.03-1.29h1.96c0.01,0.41,0.02,0.8,0.02,1.19s-0.01,0.74-0.02,1.08
			c-0.04,1.04-0.3,1.78-0.81,2.23C5.29,163.66,4.48,163.89,3.35,163.89z"/>
		<path class="st0" d="M10.52,163.89c-0.68,0-1.22-0.2-1.6-0.59c-0.39-0.39-0.58-1.04-0.58-1.94v-7.86h1.98l0.02,8.02
			c0,0.32,0.07,0.55,0.21,0.7s0.38,0.22,0.71,0.22c0.31,0,0.6-0.08,0.88-0.23s0.48-0.37,0.59-0.64v-8.07h2v10.24h-2v-1.02h-0.29
			c-0.24,0.41-0.51,0.71-0.82,0.9C11.3,163.79,10.94,163.89,10.52,163.89z"/>
		<path class="st0" d="M16.64,163.73V153.5h2.01v1.14h0.38c0.09-0.44,0.26-0.75,0.52-0.93s0.6-0.26,1.03-0.26
			c0.13,0,0.25,0.01,0.38,0.02c0.13,0.01,0.24,0.02,0.34,0.02V155h-0.7c-0.56,0-1,0.08-1.31,0.25c-0.32,0.16-0.53,0.45-0.63,0.86
			v7.63h-2.02V163.73z"/>
		<path class="st0" d="M25.32,163.89c-1.01,0-1.73-0.21-2.15-0.61c-0.42-0.41-0.65-1.08-0.7-2.01c0-0.26,0-0.51,0-0.73
			c0-0.23,0.01-0.41,0.02-0.56h1.76c-0.01,0.36-0.02,0.66-0.02,0.9c0,0.23,0.01,0.44,0.02,0.61c0.01,0.35,0.1,0.6,0.27,0.73
			c0.17,0.14,0.44,0.2,0.8,0.2c0.41,0,0.71-0.07,0.9-0.21s0.28-0.39,0.28-0.74c0.01-0.3,0.01-0.57,0-0.84
			c0-0.28-0.05-0.51-0.15-0.67s-0.29-0.28-0.56-0.36l-1.11-0.29c-0.75-0.22-1.31-0.51-1.67-0.89s-0.55-0.94-0.56-1.69
			c-0.01-0.26-0.01-0.5,0-0.72c0.01-0.94,0.24-1.62,0.68-2.04s1.21-0.62,2.3-0.62c1,0,1.72,0.2,2.14,0.61
			c0.43,0.4,0.66,1.07,0.69,1.99c0.01,0.09,0.02,0.23,0.02,0.4c0,0.18,0,0.35-0.01,0.52s-0.01,0.3-0.03,0.39h-1.81
			c0.01-0.24,0.02-0.51,0.02-0.82s-0.01-0.55-0.02-0.72c-0.01-0.32-0.09-0.55-0.23-0.68c-0.14-0.14-0.4-0.2-0.78-0.2
			c-0.39,0-0.65,0.07-0.8,0.2c-0.15,0.13-0.23,0.37-0.24,0.71c-0.01,0.06-0.02,0.15-0.02,0.27c-0.01,0.13,0,0.3,0.01,0.53
			c0,0.33,0.05,0.59,0.14,0.78c0.1,0.19,0.3,0.32,0.62,0.4l1.01,0.24c0.74,0.18,1.29,0.47,1.66,0.85c0.37,0.39,0.55,0.96,0.55,1.72
			c0,0.14,0,0.26-0.01,0.38c-0.01,0.12-0.01,0.25-0.01,0.4c-0.01,0.91-0.24,1.57-0.7,1.97C27.19,163.68,26.42,163.89,25.32,163.89z"
			/>
		<path class="st0" d="M33.14,163.89c-1.11,0-1.9-0.23-2.36-0.67c-0.46-0.45-0.72-1.2-0.78-2.24c-0.01-0.28-0.02-0.63-0.03-1.03
			s-0.02-0.83-0.02-1.27s0-0.88,0.01-1.31s0.02-0.79,0.04-1.1c0.06-1.07,0.32-1.82,0.78-2.26c0.46-0.44,1.25-0.66,2.36-0.66
			c0.75,0,1.35,0.1,1.79,0.3s0.76,0.51,0.96,0.94c0.2,0.43,0.32,0.99,0.37,1.68c0.01,0.4,0.02,0.88,0.03,1.46
			c0.01,0.57,0.01,1.15,0,1.74c-0.01,0.59-0.01,1.09-0.03,1.51c-0.05,0.69-0.17,1.26-0.38,1.69c-0.21,0.43-0.53,0.75-0.97,0.94
			C34.47,163.79,33.88,163.89,33.14,163.89z M33.14,162.4c0.42,0,0.71-0.08,0.88-0.24c0.16-0.16,0.25-0.4,0.26-0.73
			c0.05-1.01,0.07-1.96,0.07-2.84c0-0.88-0.02-1.82-0.07-2.81c-0.01-0.33-0.1-0.57-0.27-0.73c-0.17-0.15-0.46-0.23-0.87-0.23
			c-0.42,0-0.72,0.08-0.9,0.25c-0.18,0.16-0.28,0.41-0.29,0.72c-0.02,0.81-0.04,1.7-0.04,2.69c-0.01,0.98,0.01,1.97,0.06,2.94
			c0.01,0.33,0.11,0.57,0.28,0.73C32.42,162.32,32.72,162.4,33.14,162.4z"/>
		<path class="st0" d="M46.36,150.08h2v13.65h-2v-1.02h-0.31c-0.23,0.38-0.48,0.67-0.76,0.87c-0.28,0.21-0.67,0.31-1.17,0.31
			c-0.69,0-1.21-0.2-1.56-0.59c-0.35-0.39-0.54-1.04-0.59-1.94c-0.01-0.38-0.02-0.8-0.02-1.29c-0.01-0.48-0.01-0.98-0.01-1.49
			c0-0.51,0-1,0.01-1.48c0.01-0.47,0.01-0.88,0.02-1.24c0.03-0.91,0.24-1.56,0.61-1.94c0.38-0.39,0.9-0.58,1.57-0.58
			c0.51,0,0.9,0.1,1.17,0.3c0.27,0.2,0.51,0.49,0.74,0.88h0.29L46.36,150.08L46.36,150.08z M44.91,162.44c0.3,0,0.58-0.07,0.86-0.22
			s0.47-0.36,0.59-0.65v-5.9c-0.11-0.28-0.31-0.5-0.59-0.65s-0.57-0.22-0.86-0.22c-0.32,0-0.55,0.07-0.7,0.21s-0.23,0.36-0.24,0.66
			c-0.05,0.96-0.07,1.96-0.07,3c0,1.05,0.02,1.99,0.07,2.83c0.01,0.34,0.09,0.58,0.23,0.73C44.34,162.37,44.58,162.44,44.91,162.44z
			"/>
		<path class="st0" d="M54.45,159.96h1.94c0,0.13,0,0.32,0.01,0.6c0.01,0.27,0.01,0.5,0.01,0.68c-0.06,0.94-0.31,1.62-0.77,2.03
			c-0.45,0.41-1.19,0.61-2.22,0.61c-1.08,0-1.85-0.21-2.32-0.62c-0.47-0.42-0.73-1.09-0.79-2.02c-0.01-0.33-0.02-0.73-0.02-1.19
			c-0.01-0.47-0.01-0.95-0.01-1.45s0-0.98,0.01-1.43s0.01-0.84,0.02-1.16c0.06-0.95,0.33-1.64,0.81-2.05s1.24-0.61,2.26-0.61
			c1.03,0,1.79,0.2,2.25,0.61c0.47,0.41,0.72,1.07,0.77,1.98c0,0.13,0,0.36,0.01,0.7s0.01,0.72,0,1.14s-0.01,0.82-0.02,1.19h-4.13
			c0,0.4,0.01,0.8,0.02,1.21c0.01,0.41,0.02,0.84,0.03,1.28c0.01,0.34,0.1,0.58,0.27,0.73c0.17,0.14,0.44,0.21,0.82,0.21
			s0.64-0.07,0.78-0.21c0.15-0.14,0.23-0.39,0.26-0.74c0.01-0.17,0.02-0.38,0.02-0.63C54.46,160.57,54.46,160.28,54.45,159.96z
			 M53.39,154.83c-0.39,0-0.66,0.07-0.82,0.22s-0.24,0.38-0.26,0.68c-0.01,0.31-0.02,0.61-0.03,0.91s-0.01,0.61-0.01,0.91h2.18
			c0-0.39,0-0.76,0-1.12s-0.01-0.59-0.02-0.71c-0.02-0.33-0.12-0.56-0.28-0.7C54,154.9,53.74,154.83,53.39,154.83z"/>
		<path class="st0" d="M66.49,167.14v-4.44h-0.27c-0.24,0.42-0.5,0.72-0.78,0.9c-0.29,0.18-0.63,0.27-1.02,0.27
			c-0.69,0-1.24-0.2-1.64-0.59c-0.4-0.39-0.62-1.04-0.67-1.94c-0.01-0.35-0.02-0.77-0.02-1.26c-0.01-0.49-0.01-1-0.01-1.52
			s0-1.02,0.01-1.5s0.01-0.88,0.02-1.21c0.05-0.9,0.25-1.54,0.61-1.94c0.36-0.39,0.88-0.59,1.58-0.59c0.51,0,0.9,0.1,1.17,0.3
			s0.51,0.49,0.73,0.88h0.31v-1.02h2v13.65h-2.02V167.14z M65.14,162.44c0.34,0,0.62-0.07,0.84-0.2c0.22-0.13,0.39-0.35,0.51-0.67
			v-5.9c-0.11-0.28-0.31-0.5-0.59-0.65s-0.57-0.22-0.86-0.22c-0.31,0-0.54,0.07-0.69,0.21s-0.24,0.38-0.26,0.72
			c-0.02,0.58-0.04,1.21-0.04,1.9c-0.01,0.69,0,1.37,0.01,2.05c0.01,0.68,0.03,1.29,0.05,1.85
			C64.12,162.13,64.47,162.44,65.14,162.44z"/>
		<path class="st0" d="M72.66,163.89c-0.68,0-1.22-0.2-1.6-0.59c-0.39-0.39-0.58-1.04-0.58-1.94v-7.86h1.98l0.02,8.02
			c0,0.32,0.07,0.55,0.21,0.7s0.38,0.22,0.71,0.22c0.31,0,0.6-0.08,0.88-0.23s0.48-0.37,0.59-0.64v-8.07h2v10.24h-2v-1.02h-0.29
			c-0.24,0.41-0.51,0.71-0.82,0.9C73.45,163.79,73.08,163.89,72.66,163.89z"/>
		<path class="st0" d="M80.7,163.85c-0.72,0-1.25-0.17-1.6-0.52s-0.56-0.92-0.63-1.71c0-0.13,0-0.26-0.01-0.41
			c-0.01-0.15,0-0.28,0.01-0.39c0.05-0.65,0.24-1.18,0.59-1.6c0.35-0.41,0.95-0.79,1.82-1.13c0.31-0.13,0.61-0.24,0.91-0.34
			c0.3-0.1,0.63-0.2,0.98-0.29v-1.66c0-0.65-0.36-0.97-1.07-0.97c-0.33,0-0.58,0.07-0.76,0.2c-0.18,0.13-0.27,0.36-0.28,0.67
			c-0.01,0.11-0.02,0.28-0.02,0.5s0,0.44,0,0.64s0.01,0.34,0.02,0.41h-1.89c-0.01-0.16-0.02-0.36-0.02-0.61c0-0.24,0-0.48,0-0.71
			c0.05-0.9,0.28-1.56,0.72-1.97c0.43-0.42,1.2-0.62,2.3-0.62c1.11,0,1.88,0.23,2.3,0.68c0.42,0.46,0.63,1.19,0.63,2.2l-0.02,7.51
			h-1.94v-1.02h-0.29c-0.18,0.39-0.4,0.67-0.65,0.86C81.54,163.76,81.18,163.85,80.7,163.85z M81.45,162.44
			c0.6,0,1.03-0.27,1.3-0.82v-2.81c-0.23,0.07-0.46,0.14-0.69,0.22s-0.48,0.19-0.73,0.32c-0.36,0.17-0.6,0.38-0.72,0.64
			c-0.11,0.26-0.18,0.54-0.19,0.84c0,0.25,0.01,0.47,0.02,0.65C80.49,162.12,80.82,162.44,81.45,162.44z"/>
		<path class="st0" d="M86.64,163.73v-13.65h1.96v13.65H86.64z"/>
		<path class="st0" d="M90.42,151.74v-1.65h2.17v1.65H90.42z M90.52,163.73V153.5h1.96v10.24h-1.96V163.73z"/>
		<path class="st0" d="M95.22,163.73L95.2,155h-1.06v-1.5h1.06v-0.96c0-0.93,0.25-1.6,0.74-2.01s1.27-0.61,2.33-0.61
			c0.18,0,0.39,0.01,0.62,0.03s0.45,0.05,0.64,0.08v1.43c-0.19,0-0.39,0-0.61-0.01c-0.21-0.01-0.42-0.01-0.64-0.01
			c-0.36,0-0.64,0.07-0.83,0.22s-0.28,0.39-0.28,0.73v1.09h1.98v1.5h-1.98l0.02,8.73h-1.97V163.73z M100.16,151.74v-1.65h2.17v1.65
			H100.16z M100.27,163.73V153.5h1.96v10.24h-1.96V163.73z"/>
		<path class="st0" d="M104.21,161.26c-0.01-0.34-0.02-0.75-0.02-1.21c-0.01-0.47-0.01-0.95-0.01-1.45s0-0.98,0.01-1.43
			s0.01-0.84,0.02-1.16c0.07-0.95,0.34-1.64,0.81-2.05s1.22-0.61,2.26-0.61c1.03,0,1.79,0.2,2.25,0.61c0.47,0.4,0.72,1.07,0.75,1.99
			c0.01,0.2,0.01,0.44,0.01,0.71c-0.01,0.27-0.01,0.47-0.03,0.61h-1.93c0.01-0.23,0.01-0.49,0.01-0.79
			c-0.01-0.3-0.01-0.55-0.01-0.75c-0.01-0.31-0.09-0.53-0.25-0.67c-0.15-0.14-0.42-0.21-0.81-0.21s-0.66,0.07-0.82,0.2
			c-0.16,0.14-0.24,0.37-0.26,0.7c-0.03,1.05-0.05,2.01-0.05,2.89s0.02,1.83,0.05,2.84c0.01,0.34,0.1,0.58,0.26,0.73
			c0.16,0.14,0.44,0.21,0.83,0.21s0.65-0.07,0.8-0.22s0.23-0.39,0.24-0.73c0-0.2,0-0.42,0.01-0.65s0-0.51-0.01-0.84h1.93
			c0.01,0.14,0.02,0.34,0.03,0.61s0,0.5-0.01,0.69c-0.03,0.93-0.29,1.6-0.75,2.01c-0.47,0.41-1.21,0.61-2.23,0.61
			c-1.08,0-1.85-0.21-2.31-0.62C104.52,162.85,104.26,162.18,104.21,161.26z"/>
		<path class="st0" d="M113.79,163.85c-0.72,0-1.25-0.17-1.6-0.52s-0.56-0.92-0.63-1.71c0-0.13,0-0.26-0.01-0.41
			c-0.01-0.15,0-0.28,0.01-0.39c0.05-0.65,0.24-1.18,0.59-1.6c0.35-0.41,0.95-0.79,1.82-1.13c0.31-0.13,0.61-0.24,0.91-0.34
			c0.3-0.1,0.63-0.2,0.98-0.29v-1.66c0-0.65-0.36-0.97-1.07-0.97c-0.33,0-0.58,0.07-0.76,0.2c-0.18,0.13-0.27,0.36-0.28,0.67
			c-0.01,0.11-0.02,0.28-0.02,0.5s0,0.44,0,0.64s0.01,0.34,0.02,0.41h-1.89c-0.01-0.16-0.02-0.36-0.02-0.61c0-0.24,0-0.48,0-0.71
			c0.05-0.9,0.28-1.56,0.72-1.97c0.43-0.42,1.2-0.62,2.3-0.62c1.11,0,1.88,0.23,2.3,0.68c0.42,0.46,0.63,1.19,0.63,2.2l-0.02,7.51
			h-1.94v-1.02h-0.29c-0.18,0.39-0.4,0.67-0.65,0.86C114.64,163.76,114.27,163.85,113.79,163.85z M114.54,162.44
			c0.6,0,1.03-0.27,1.3-0.82v-2.81c-0.23,0.07-0.46,0.14-0.69,0.22s-0.48,0.19-0.73,0.32c-0.36,0.17-0.6,0.38-0.72,0.64
			c-0.11,0.26-0.18,0.54-0.19,0.84c0,0.25,0.01,0.47,0.02,0.65C113.58,162.12,113.92,162.44,114.54,162.44z"/>
		<path class="st0" d="M119.66,161.26c-0.01-0.34-0.02-0.75-0.02-1.21c-0.01-0.47-0.01-0.95-0.01-1.45s0-0.98,0.01-1.43
			s0.01-0.84,0.02-1.16c0.07-0.95,0.34-1.64,0.81-2.05s1.22-0.61,2.26-0.61c1.03,0,1.79,0.2,2.25,0.61c0.47,0.4,0.72,1.07,0.75,1.99
			c0.01,0.2,0.01,0.44,0.01,0.71c-0.01,0.27-0.01,0.47-0.03,0.61h-1.93c0.01-0.23,0.01-0.49,0.01-0.79
			c-0.01-0.3-0.01-0.55-0.01-0.75c-0.01-0.31-0.09-0.53-0.25-0.67c-0.15-0.14-0.42-0.21-0.81-0.21s-0.66,0.07-0.82,0.2
			c-0.16,0.14-0.24,0.37-0.26,0.7c-0.03,1.05-0.05,2.01-0.05,2.89s0.02,1.83,0.05,2.84c0.01,0.34,0.1,0.58,0.26,0.73
			c0.16,0.14,0.44,0.21,0.83,0.21s0.65-0.07,0.8-0.22s0.23-0.39,0.24-0.73c0-0.2,0-0.42,0.01-0.65s0-0.51-0.01-0.84h1.93
			c0.01,0.14,0.02,0.34,0.03,0.61s0,0.5-0.01,0.69c-0.03,0.93-0.29,1.6-0.75,2.01c-0.47,0.41-1.21,0.61-2.23,0.61
			c-1.08,0-1.85-0.21-2.31-0.62C119.98,162.85,119.72,162.18,119.66,161.26z M123.47,166.22c-0.18,0-0.37-0.01-0.57-0.02
			c-0.2-0.02-0.38-0.04-0.54-0.08l0.17-0.67c0.24,0.03,0.55,0.05,0.94,0.03c0.32,0,0.48-0.1,0.48-0.31c0-0.13-0.05-0.22-0.14-0.27
			c-0.09-0.06-0.2-0.08-0.34-0.08h-1.11l-0.1-0.1v-1.19h0.87v0.61h0.34c0.4,0,0.73,0.09,0.98,0.26c0.26,0.17,0.38,0.43,0.38,0.78
			C124.83,165.87,124.38,166.21,123.47,166.22z"/>
		<path class="st0" d="M129.25,163.85c-0.72,0-1.25-0.17-1.6-0.52s-0.56-0.92-0.63-1.71c0-0.13,0-0.26-0.01-0.41
			c-0.01-0.15,0-0.28,0.01-0.39c0.05-0.65,0.24-1.18,0.59-1.6c0.35-0.41,0.95-0.79,1.82-1.13c0.31-0.13,0.61-0.24,0.91-0.34
			c0.3-0.1,0.63-0.2,0.98-0.29v-1.66c0-0.65-0.36-0.97-1.07-0.97c-0.33,0-0.58,0.07-0.76,0.2c-0.18,0.13-0.27,0.36-0.28,0.67
			c-0.01,0.11-0.02,0.28-0.02,0.5s0,0.44,0,0.64s0.01,0.34,0.02,0.41h-1.89c-0.01-0.16-0.02-0.36-0.02-0.61c0-0.24,0-0.48,0-0.71
			c0.05-0.9,0.28-1.56,0.72-1.97c0.43-0.42,1.2-0.62,2.3-0.62c1.11,0,1.88,0.23,2.3,0.68c0.42,0.46,0.63,1.19,0.63,2.2l-0.02,7.51
			h-1.94v-1.02H131c-0.18,0.39-0.4,0.67-0.65,0.86C130.09,163.76,129.73,163.85,129.25,163.85z M127.75,152.51
			c0.04-0.6,0.22-1.04,0.51-1.31c0.3-0.27,0.67-0.39,1.13-0.38c0.33,0.01,0.6,0.08,0.8,0.2c0.21,0.13,0.39,0.25,0.55,0.37
			s0.36,0.18,0.57,0.18c0.23,0.01,0.41-0.04,0.54-0.14c0.13-0.11,0.2-0.25,0.2-0.44h0.82c-0.01,0.57-0.16,0.98-0.46,1.24
			c-0.3,0.26-0.67,0.38-1.13,0.38c-0.31-0.01-0.57-0.08-0.78-0.2c-0.21-0.12-0.4-0.24-0.58-0.37c-0.18-0.13-0.37-0.19-0.59-0.2
			c-0.19-0.01-0.36,0.04-0.5,0.15s-0.23,0.28-0.26,0.52H127.75z M130,162.44c0.6,0,1.03-0.27,1.3-0.82v-2.81
			c-0.23,0.07-0.46,0.14-0.69,0.22s-0.48,0.19-0.73,0.32c-0.36,0.17-0.6,0.38-0.72,0.64c-0.11,0.26-0.18,0.54-0.19,0.84
			c0,0.25,0.01,0.47,0.02,0.65C129.04,162.12,129.37,162.44,130,162.44z"/>
		<path class="st0" d="M138.28,163.89c-1.11,0-1.9-0.23-2.36-0.67c-0.46-0.45-0.72-1.2-0.78-2.24c-0.01-0.28-0.02-0.63-0.03-1.03
			s-0.02-0.83-0.02-1.27s0-0.88,0.01-1.31s0.02-0.79,0.04-1.1c0.06-1.07,0.32-1.82,0.78-2.26c0.46-0.44,1.25-0.66,2.36-0.66
			c0.75,0,1.35,0.1,1.79,0.3s0.76,0.51,0.96,0.94c0.2,0.43,0.32,0.99,0.37,1.68c0.01,0.4,0.02,0.88,0.03,1.46
			c0.01,0.57,0.01,1.15,0,1.74c-0.01,0.59-0.01,1.09-0.03,1.51c-0.05,0.69-0.17,1.26-0.38,1.69c-0.21,0.43-0.53,0.75-0.97,0.94
			C139.61,163.79,139.01,163.89,138.28,163.89z M138.28,162.4c0.42,0,0.71-0.08,0.88-0.24c0.16-0.16,0.25-0.4,0.26-0.73
			c0.05-1.01,0.07-1.96,0.07-2.84c0-0.88-0.02-1.82-0.07-2.81c-0.01-0.33-0.1-0.57-0.27-0.73c-0.17-0.15-0.46-0.23-0.87-0.23
			c-0.42,0-0.72,0.08-0.9,0.25c-0.18,0.16-0.28,0.41-0.29,0.72c-0.02,0.81-0.04,1.7-0.04,2.69c-0.01,0.98,0.01,1.97,0.06,2.94
			c0.01,0.33,0.11,0.57,0.28,0.73C137.55,162.32,137.85,162.4,138.28,162.4z"/>
		<path class="st0" d="M147.37,167.14V153.5h2v1.02h0.31c0.23-0.39,0.47-0.68,0.73-0.88c0.26-0.2,0.65-0.3,1.18-0.3
			c0.68,0,1.21,0.2,1.57,0.59s0.56,1.04,0.6,1.94c0.01,0.32,0.02,0.72,0.03,1.21s0.01,1,0.01,1.54s0,1.06-0.01,1.54
			c-0.01,0.49-0.01,0.89-0.03,1.19c-0.03,0.9-0.25,1.54-0.65,1.94c-0.4,0.39-0.94,0.59-1.62,0.59c-0.4,0-0.74-0.09-1.02-0.27
			c-0.29-0.18-0.55-0.48-0.79-0.9h-0.31v4.44L147.37,167.14L147.37,167.14z M150.71,162.44c0.67,0,1.02-0.31,1.04-0.92
			c0.06-1.09,0.08-2.11,0.08-3.05c-0.01-0.94-0.03-1.88-0.08-2.8c-0.02-0.58-0.33-0.87-0.92-0.87c-0.32,0-0.61,0.08-0.88,0.23
			s-0.46,0.37-0.59,0.64v5.9c0.14,0.32,0.31,0.54,0.53,0.67S150.38,162.44,150.71,162.44z"/>
		<path class="st0" d="M157.52,163.85c-0.72,0-1.25-0.17-1.6-0.52s-0.56-0.92-0.63-1.71c0-0.13,0-0.26-0.01-0.41
			c-0.01-0.15,0-0.28,0.01-0.39c0.05-0.65,0.24-1.18,0.59-1.6c0.35-0.41,0.95-0.79,1.82-1.13c0.31-0.13,0.61-0.24,0.91-0.34
			c0.3-0.1,0.63-0.2,0.98-0.29v-1.66c0-0.65-0.36-0.97-1.07-0.97c-0.33,0-0.58,0.07-0.76,0.2c-0.18,0.13-0.27,0.36-0.28,0.67
			c-0.01,0.11-0.02,0.28-0.02,0.5s0,0.44,0,0.64s0.01,0.34,0.02,0.41h-1.89c-0.01-0.16-0.02-0.36-0.02-0.61c0-0.24,0-0.48,0-0.71
			c0.05-0.9,0.28-1.56,0.72-1.97c0.43-0.42,1.2-0.62,2.3-0.62c1.11,0,1.88,0.23,2.3,0.68c0.42,0.46,0.63,1.19,0.63,2.2l-0.02,7.51
			h-1.94v-1.02h-0.29c-0.18,0.39-0.4,0.67-0.65,0.86C158.36,163.76,157.99,163.85,157.52,163.85z M158.27,162.44
			c0.6,0,1.03-0.27,1.3-0.82v-2.81c-0.23,0.07-0.46,0.14-0.69,0.22s-0.48,0.19-0.73,0.32c-0.36,0.17-0.6,0.38-0.72,0.64
			c-0.11,0.26-0.18,0.54-0.19,0.84c0,0.25,0.01,0.47,0.02,0.65C157.31,162.12,157.64,162.44,158.27,162.44z"/>
		<path class="st0" d="M163.45,163.73V153.5h2.01v1.14h0.38c0.09-0.44,0.26-0.75,0.52-0.93c0.26-0.18,0.6-0.26,1.03-0.26
			c0.13,0,0.25,0.01,0.38,0.02s0.24,0.02,0.34,0.02V155h-0.7c-0.56,0-1,0.08-1.31,0.25c-0.32,0.16-0.53,0.45-0.63,0.86v7.63h-2.02
			V163.73z"/>
		<path class="st0" d="M170.99,163.85c-0.72,0-1.25-0.17-1.6-0.52s-0.56-0.92-0.63-1.71c0-0.13,0-0.26-0.01-0.41
			c-0.01-0.15,0-0.28,0.01-0.39c0.05-0.65,0.24-1.18,0.59-1.6c0.35-0.41,0.95-0.79,1.82-1.13c0.31-0.13,0.61-0.24,0.91-0.34
			c0.3-0.1,0.63-0.2,0.98-0.29v-1.66c0-0.65-0.36-0.97-1.07-0.97c-0.33,0-0.58,0.07-0.76,0.2c-0.18,0.13-0.27,0.36-0.28,0.67
			c-0.01,0.11-0.02,0.28-0.02,0.5s0,0.44,0,0.64s0.01,0.34,0.02,0.41h-1.89c-0.01-0.16-0.02-0.36-0.02-0.61c0-0.24,0-0.48,0-0.71
			c0.05-0.9,0.28-1.56,0.72-1.97c0.43-0.42,1.2-0.62,2.3-0.62c1.11,0,1.88,0.23,2.3,0.68c0.42,0.46,0.63,1.19,0.63,2.2l-0.02,7.51
			h-1.94v-1.02h-0.29c-0.18,0.39-0.4,0.67-0.65,0.86C171.84,163.76,171.47,163.85,170.99,163.85z M171.74,162.44
			c0.6,0,1.03-0.27,1.3-0.82v-2.81c-0.23,0.07-0.46,0.14-0.69,0.22s-0.48,0.19-0.73,0.32c-0.36,0.17-0.6,0.38-0.72,0.64
			c-0.11,0.26-0.18,0.54-0.19,0.84c0,0.25,0.01,0.47,0.02,0.65C170.78,162.12,171.12,162.44,171.74,162.44z"/>
		<path class="st0" d="M180.94,163.73V153.5h1.98v1.02h0.36c0.22-0.38,0.45-0.67,0.7-0.87s0.63-0.31,1.14-0.31
			c0.48,0,0.88,0.1,1.2,0.31c0.32,0.2,0.56,0.54,0.71,0.99h0.31c0.22-0.38,0.48-0.69,0.78-0.93c0.3-0.24,0.7-0.37,1.2-0.37
			c0.66,0,1.17,0.2,1.53,0.59s0.54,1.04,0.54,1.94v7.86h-1.96v-8.02c0-0.33-0.08-0.57-0.25-0.71s-0.39-0.21-0.67-0.21
			c-0.26,0-0.51,0.08-0.75,0.24s-0.43,0.36-0.56,0.61v8.09h-1.96v-8.02c-0.01-0.61-0.31-0.92-0.9-0.92c-0.31,0-0.59,0.08-0.84,0.23
			c-0.26,0.15-0.44,0.37-0.55,0.64v8.07L180.94,163.73L180.94,163.73z"/>
		<path class="st0" d="M195.56,163.89c-0.68,0-1.22-0.2-1.6-0.59c-0.39-0.39-0.58-1.04-0.58-1.94v-7.86h1.98l0.02,8.02
			c0,0.32,0.07,0.55,0.21,0.7s0.38,0.22,0.71,0.22c0.31,0,0.6-0.08,0.88-0.23s0.48-0.37,0.59-0.64v-8.07h2v10.24h-2v-1.02h-0.29
			c-0.24,0.41-0.51,0.71-0.82,0.9C196.34,163.79,195.98,163.89,195.56,163.89z"/>
		<path class="st0" d="M201.68,163.73v-13.65h1.96v13.65H201.68z"/>
		<path class="st0" d="M209.38,163.89c-1.15,0-1.96-0.2-2.45-0.61c-0.48-0.4-0.73-1.09-0.73-2.06V155h-0.92v-1.5h0.95v-2.9h2.05
			l-0.05,2.9h1.84v1.5h-1.89l0.02,6.45c0,0.39,0.08,0.65,0.26,0.78c0.17,0.13,0.48,0.2,0.92,0.2c0.17,0,0.32-0.01,0.45-0.02
			c0.13-0.01,0.28-0.02,0.45-0.02v1.42C210.03,163.86,209.73,163.89,209.38,163.89z"/>
		<path class="st0" d="M211.78,151.74v-1.65h2.17v1.65H211.78z M211.88,163.73V153.5h1.96v10.24h-1.96V163.73z"/>
		<path class="st0" d="M215.77,167.14V153.5h2v1.02h0.31c0.23-0.39,0.47-0.68,0.73-0.88s0.65-0.3,1.18-0.3
			c0.68,0,1.21,0.2,1.57,0.59s0.56,1.04,0.6,1.94c0.01,0.32,0.02,0.72,0.03,1.21s0.01,1,0.01,1.54s0,1.06-0.01,1.54
			c-0.01,0.49-0.01,0.89-0.03,1.19c-0.03,0.9-0.25,1.54-0.65,1.94c-0.4,0.39-0.94,0.59-1.62,0.59c-0.4,0-0.74-0.09-1.02-0.27
			c-0.29-0.18-0.55-0.48-0.79-0.9h-0.31v4.44L215.77,167.14L215.77,167.14z M219.12,162.44c0.67,0,1.02-0.31,1.04-0.92
			c0.06-1.09,0.08-2.11,0.08-3.05c-0.01-0.94-0.03-1.88-0.08-2.8c-0.02-0.58-0.33-0.87-0.92-0.87c-0.32,0-0.61,0.08-0.88,0.23
			s-0.46,0.37-0.59,0.64v5.9c0.14,0.32,0.31,0.54,0.53,0.67C218.52,162.37,218.79,162.44,219.12,162.44z"/>
		<path class="st0" d="M223.88,163.73v-13.65h1.96v13.65H223.88z"/>
		<path class="st0" d="M227.66,151.74v-1.65h2.17v1.65H227.66z M227.77,163.73V153.5h1.96v10.24h-1.96V163.73z"/>
		<path class="st0" d="M231.69,161.26c-0.01-0.34-0.02-0.75-0.02-1.21c-0.01-0.47-0.01-0.95-0.01-1.45s0-0.98,0.01-1.43
			s0.01-0.84,0.02-1.16c0.07-0.95,0.34-1.64,0.81-2.05s1.22-0.61,2.26-0.61c1.03,0,1.79,0.2,2.25,0.61c0.47,0.4,0.72,1.07,0.75,1.99
			c0.01,0.2,0.01,0.44,0.01,0.71c-0.01,0.27-0.01,0.47-0.03,0.61h-1.93c0.01-0.23,0.01-0.49,0.01-0.79
			c-0.01-0.3-0.01-0.55-0.01-0.75c-0.01-0.31-0.09-0.53-0.25-0.67c-0.15-0.14-0.42-0.21-0.81-0.21s-0.66,0.07-0.82,0.2
			c-0.16,0.14-0.24,0.37-0.26,0.7c-0.03,1.05-0.05,2.01-0.05,2.89s0.02,1.83,0.05,2.84c0.01,0.34,0.1,0.58,0.26,0.73
			c0.16,0.14,0.44,0.21,0.83,0.21s0.65-0.07,0.8-0.22c0.15-0.15,0.23-0.39,0.24-0.73c0-0.2,0-0.42,0.01-0.65s0-0.51-0.01-0.84h1.93
			c0.01,0.14,0.02,0.34,0.03,0.61s0,0.5-0.01,0.69c-0.03,0.93-0.29,1.6-0.75,2.01c-0.47,0.41-1.21,0.61-2.23,0.61
			c-1.08,0-1.85-0.21-2.31-0.62C232.01,162.85,231.75,162.18,231.69,161.26z"/>
		<path class="st0" d="M241.28,163.85c-0.72,0-1.25-0.17-1.6-0.52s-0.56-0.92-0.63-1.71c0-0.13,0-0.26-0.01-0.41
			c-0.01-0.15,0-0.28,0.01-0.39c0.05-0.65,0.24-1.18,0.59-1.6c0.35-0.41,0.95-0.79,1.82-1.13c0.31-0.13,0.61-0.24,0.91-0.34
			c0.3-0.1,0.63-0.2,0.98-0.29v-1.66c0-0.65-0.36-0.97-1.07-0.97c-0.33,0-0.58,0.07-0.76,0.2c-0.18,0.13-0.27,0.36-0.28,0.67
			c-0.01,0.11-0.02,0.28-0.02,0.5s0,0.44,0,0.64s0.01,0.34,0.02,0.41h-1.89c-0.01-0.16-0.02-0.36-0.02-0.61c0-0.24,0-0.48,0-0.71
			c0.05-0.9,0.28-1.56,0.72-1.97c0.43-0.42,1.2-0.62,2.3-0.62c1.11,0,1.88,0.23,2.3,0.68c0.42,0.46,0.63,1.19,0.63,2.2l-0.02,7.51
			h-1.94v-1.02h-0.29c-0.18,0.39-0.4,0.67-0.65,0.86C242.12,163.76,241.76,163.85,241.28,163.85z M242.03,162.44
			c0.6,0,1.03-0.27,1.3-0.82v-2.81c-0.23,0.07-0.46,0.14-0.69,0.22s-0.48,0.19-0.73,0.32c-0.36,0.17-0.6,0.38-0.72,0.64
			c-0.11,0.26-0.18,0.54-0.19,0.84c0,0.25,0.01,0.47,0.02,0.65C241.07,162.12,241.4,162.44,242.03,162.44z"/>
		<path class="st0" d="M251.36,150.08h2v13.65h-2v-1.02h-0.31c-0.23,0.38-0.48,0.67-0.76,0.87c-0.28,0.21-0.67,0.31-1.17,0.31
			c-0.69,0-1.21-0.2-1.56-0.59c-0.35-0.39-0.54-1.04-0.59-1.94c-0.01-0.38-0.02-0.8-0.02-1.29c-0.01-0.48-0.01-0.98-0.01-1.49
			c0-0.51,0-1,0.01-1.48c0.01-0.47,0.01-0.88,0.02-1.24c0.03-0.91,0.24-1.56,0.61-1.94c0.38-0.39,0.9-0.58,1.57-0.58
			c0.51,0,0.9,0.1,1.17,0.3s0.51,0.49,0.74,0.88h0.29L251.36,150.08L251.36,150.08z M249.91,162.44c0.3,0,0.58-0.07,0.86-0.22
			s0.47-0.36,0.59-0.65v-5.9c-0.11-0.28-0.31-0.5-0.59-0.65s-0.57-0.22-0.86-0.22c-0.32,0-0.55,0.07-0.7,0.21s-0.23,0.36-0.24,0.66
			c-0.05,0.96-0.07,1.96-0.07,3c0,1.05,0.02,1.99,0.07,2.83c0.01,0.34,0.09,0.58,0.23,0.73
			C249.34,162.37,249.58,162.44,249.91,162.44z"/>
		<path class="st0" d="M258.47,163.89c-1.11,0-1.9-0.23-2.36-0.67c-0.46-0.45-0.72-1.2-0.78-2.24c-0.01-0.28-0.02-0.63-0.03-1.03
			s-0.02-0.83-0.02-1.27s0-0.88,0.01-1.31s0.02-0.79,0.04-1.1c0.06-1.07,0.32-1.82,0.78-2.26c0.46-0.44,1.25-0.66,2.36-0.66
			c0.75,0,1.35,0.1,1.79,0.3s0.76,0.51,0.96,0.94c0.2,0.43,0.32,0.99,0.37,1.68c0.01,0.4,0.02,0.88,0.03,1.46
			c0.01,0.57,0.01,1.15,0,1.74c-0.01,0.59-0.01,1.09-0.03,1.51c-0.05,0.69-0.17,1.26-0.38,1.69c-0.21,0.43-0.53,0.75-0.97,0.94
			C259.8,163.79,259.21,163.89,258.47,163.89z M258.47,162.4c0.42,0,0.71-0.08,0.88-0.24c0.16-0.16,0.25-0.4,0.26-0.73
			c0.05-1.01,0.07-1.96,0.07-2.84c0-0.88-0.02-1.82-0.07-2.81c-0.01-0.33-0.1-0.57-0.27-0.73c-0.17-0.15-0.46-0.23-0.87-0.23
			c-0.42,0-0.72,0.08-0.9,0.25c-0.18,0.16-0.28,0.41-0.29,0.72c-0.02,0.81-0.04,1.7-0.04,2.69c-0.01,0.98,0.01,1.97,0.06,2.94
			c0.01,0.33,0.11,0.57,0.28,0.73C257.75,162.32,258.05,162.4,258.47,162.4z"/>
		<path class="st0" d="M263.39,163.73V153.5h2.01v1.14h0.38c0.09-0.44,0.26-0.75,0.52-0.93c0.26-0.18,0.6-0.26,1.03-0.26
			c0.13,0,0.25,0.01,0.38,0.02s0.24,0.02,0.34,0.02V155h-0.7c-0.56,0-1,0.08-1.31,0.25c-0.32,0.16-0.53,0.45-0.63,0.86v7.63h-2.02
			V163.73z"/>
		<path class="st0" d="M273.21,159.96h1.94c0,0.13,0,0.32,0.01,0.6c0.01,0.27,0.01,0.5,0.01,0.68c-0.06,0.94-0.31,1.62-0.77,2.03
			c-0.45,0.41-1.19,0.61-2.22,0.61c-1.08,0-1.85-0.21-2.32-0.62c-0.47-0.42-0.73-1.09-0.79-2.02c-0.01-0.33-0.02-0.73-0.02-1.19
			c-0.01-0.47-0.01-0.95-0.01-1.45s0-0.98,0.01-1.43s0.01-0.84,0.02-1.16c0.06-0.95,0.33-1.64,0.81-2.05s1.24-0.61,2.26-0.61
			c1.03,0,1.79,0.2,2.25,0.61c0.47,0.41,0.72,1.07,0.77,1.98c0,0.13,0,0.36,0.01,0.7s0.01,0.72,0,1.14s-0.01,0.82-0.02,1.19h-4.13
			c0,0.4,0.01,0.8,0.02,1.21c0.01,0.41,0.02,0.84,0.03,1.28c0.01,0.34,0.1,0.58,0.27,0.73c0.17,0.14,0.44,0.21,0.82,0.21
			s0.64-0.07,0.78-0.21c0.15-0.14,0.23-0.39,0.26-0.74c0.01-0.17,0.02-0.38,0.02-0.63C273.23,160.57,273.22,160.28,273.21,159.96z
			 M272.16,154.83c-0.39,0-0.66,0.07-0.82,0.22s-0.24,0.38-0.26,0.68c-0.01,0.31-0.02,0.61-0.03,0.91s-0.01,0.61-0.01,0.91h2.18
			c0-0.39,0-0.76,0-1.12s-0.01-0.59-0.02-0.71c-0.02-0.33-0.12-0.56-0.28-0.7C272.77,154.9,272.51,154.83,272.16,154.83z"/>
		<path class="st0" d="M279.68,163.89c-1.01,0-1.73-0.21-2.15-0.61c-0.42-0.41-0.65-1.08-0.7-2.01c0-0.26,0-0.51,0-0.73
			c0-0.23,0.01-0.41,0.02-0.56h1.76c-0.01,0.36-0.02,0.66-0.02,0.9c0,0.23,0.01,0.44,0.02,0.61c0.01,0.35,0.1,0.6,0.27,0.73
			c0.17,0.14,0.44,0.2,0.8,0.2c0.41,0,0.71-0.07,0.9-0.21s0.28-0.39,0.28-0.74c0.01-0.3,0.01-0.57,0-0.84
			c0-0.28-0.05-0.51-0.15-0.67s-0.29-0.28-0.56-0.36l-1.11-0.29c-0.75-0.22-1.31-0.51-1.67-0.89s-0.55-0.94-0.56-1.69
			c-0.01-0.26-0.01-0.5,0-0.72c0.01-0.94,0.24-1.62,0.68-2.04s1.21-0.62,2.3-0.62c1,0,1.72,0.2,2.14,0.61
			c0.43,0.4,0.66,1.07,0.69,1.99c0.01,0.09,0.02,0.23,0.02,0.4c0,0.18,0,0.35-0.01,0.52s-0.01,0.3-0.03,0.39h-1.81
			c0.01-0.24,0.02-0.51,0.02-0.82s-0.01-0.55-0.02-0.72c-0.01-0.32-0.09-0.55-0.23-0.68c-0.14-0.14-0.4-0.2-0.78-0.2
			c-0.39,0-0.65,0.07-0.8,0.2c-0.15,0.13-0.23,0.37-0.24,0.71c-0.01,0.06-0.02,0.15-0.02,0.27c-0.01,0.13,0,0.3,0.01,0.53
			c0,0.33,0.05,0.59,0.14,0.78c0.1,0.19,0.3,0.32,0.62,0.4l1.01,0.24c0.74,0.18,1.29,0.47,1.66,0.85c0.37,0.39,0.55,0.96,0.55,1.72
			c0,0.14,0,0.26-0.01,0.38c-0.01,0.12-0.01,0.25-0.01,0.4c-0.01,0.91-0.24,1.57-0.7,1.97
			C281.54,163.68,280.77,163.89,279.68,163.89z"/>
		<path class="st0" d="M292.64,159.96h1.94c0,0.13,0,0.32,0.01,0.6c0.01,0.27,0.01,0.5,0.01,0.68c-0.06,0.94-0.31,1.62-0.77,2.03
			c-0.45,0.41-1.19,0.61-2.22,0.61c-1.08,0-1.85-0.21-2.32-0.62c-0.47-0.42-0.73-1.09-0.79-2.02c-0.01-0.33-0.02-0.73-0.02-1.19
			c-0.01-0.47-0.01-0.95-0.01-1.45s0-0.98,0.01-1.43s0.01-0.84,0.02-1.16c0.06-0.95,0.33-1.64,0.81-2.05s1.24-0.61,2.26-0.61
			c1.03,0,1.79,0.2,2.25,0.61c0.47,0.41,0.72,1.07,0.77,1.98c0,0.13,0,0.36,0.01,0.7s0.01,0.72,0,1.14s-0.01,0.82-0.02,1.19h-4.13
			c0,0.4,0.01,0.8,0.02,1.21c0.01,0.41,0.02,0.84,0.03,1.28c0.01,0.34,0.1,0.58,0.27,0.73c0.17,0.14,0.44,0.21,0.82,0.21
			s0.64-0.07,0.78-0.21c0.15-0.14,0.23-0.39,0.26-0.74c0.01-0.17,0.02-0.38,0.02-0.63C292.66,160.57,292.65,160.28,292.64,159.96z
			 M291.59,154.83c-0.39,0-0.66,0.07-0.82,0.22s-0.24,0.38-0.26,0.68c-0.01,0.31-0.02,0.61-0.03,0.91s-0.01,0.61-0.01,0.91h2.18
			c0-0.39,0-0.76,0-1.12s-0.01-0.59-0.02-0.71c-0.02-0.33-0.12-0.56-0.28-0.7C292.2,154.9,291.94,154.83,291.59,154.83z"/>
		<path class="st0" d="M296.26,163.73V153.5h1.98v1.02h0.36c0.22-0.38,0.45-0.67,0.7-0.87s0.63-0.31,1.14-0.31
			c0.48,0,0.88,0.1,1.2,0.31c0.32,0.2,0.56,0.54,0.71,0.99h0.31c0.22-0.38,0.48-0.69,0.78-0.93c0.3-0.24,0.7-0.37,1.2-0.37
			c0.66,0,1.17,0.2,1.53,0.59s0.54,1.04,0.54,1.94v7.86h-1.96v-8.02c0-0.33-0.08-0.57-0.25-0.71s-0.39-0.21-0.67-0.21
			c-0.26,0-0.51,0.08-0.75,0.24s-0.43,0.36-0.56,0.61v8.09h-1.96v-8.02c-0.01-0.61-0.31-0.92-0.9-0.92c-0.31,0-0.59,0.08-0.84,0.23
			c-0.26,0.15-0.44,0.37-0.55,0.64v8.07L296.26,163.73L296.26,163.73z"/>
		<path class="st0" d="M2.89,184.36c-1.01,0-1.73-0.21-2.15-0.61c-0.42-0.41-0.65-1.08-0.7-2.01c0-0.26,0-0.51,0-0.73
			c0-0.23,0.01-0.41,0.02-0.56h1.76c-0.01,0.36-0.02,0.66-0.02,0.9c0,0.23,0.01,0.44,0.02,0.61c0.01,0.35,0.1,0.6,0.27,0.73
			c0.17,0.14,0.44,0.2,0.8,0.2c0.41,0,0.71-0.07,0.9-0.21c0.19-0.14,0.28-0.39,0.28-0.74c0.01-0.3,0.01-0.57,0-0.84
			c0-0.28-0.05-0.51-0.15-0.67s-0.29-0.28-0.56-0.36l-1.11-0.29c-0.75-0.22-1.31-0.51-1.67-0.89s-0.55-0.94-0.56-1.69
			c-0.01-0.26-0.01-0.5,0-0.72c0.01-0.94,0.24-1.62,0.68-2.04s1.21-0.62,2.3-0.62c1,0,1.72,0.2,2.14,0.61
			c0.43,0.4,0.66,1.07,0.69,1.99c0.01,0.09,0.02,0.23,0.02,0.4c0,0.18,0,0.35-0.01,0.52c0,0.17-0.01,0.3-0.02,0.39H4
			c0.01-0.24,0.02-0.51,0.02-0.82c0-0.31-0.01-0.55-0.02-0.72c-0.01-0.32-0.09-0.55-0.23-0.68c-0.14-0.14-0.4-0.2-0.78-0.2
			c-0.39,0-0.65,0.07-0.8,0.2c-0.15,0.13-0.23,0.37-0.24,0.71c-0.01,0.06-0.02,0.15-0.03,0.27c-0.01,0.13,0,0.3,0.01,0.53
			c0,0.33,0.05,0.59,0.14,0.78c0.1,0.19,0.3,0.32,0.62,0.4l1.01,0.24c0.74,0.18,1.29,0.47,1.66,0.85c0.37,0.39,0.56,0.96,0.56,1.72
			c0,0.14,0,0.26-0.01,0.38c-0.01,0.12-0.01,0.25-0.01,0.4c-0.01,0.91-0.25,1.57-0.7,1.97C4.76,184.16,3.98,184.36,2.89,184.36z"/>
		<path class="st0" d="M10.7,184.36c-1.11,0-1.9-0.23-2.36-0.67c-0.46-0.45-0.72-1.2-0.78-2.24c-0.01-0.28-0.02-0.63-0.03-1.03
			s-0.02-0.83-0.02-1.27s0-0.88,0.01-1.31s0.02-0.79,0.04-1.1c0.06-1.07,0.32-1.82,0.78-2.26c0.46-0.44,1.25-0.66,2.36-0.66
			c0.75,0,1.35,0.1,1.79,0.3s0.76,0.51,0.96,0.94c0.2,0.43,0.32,0.99,0.37,1.68c0.01,0.4,0.02,0.88,0.03,1.46
			c0.01,0.57,0.01,1.15,0,1.74c-0.01,0.59-0.01,1.09-0.03,1.51c-0.05,0.69-0.17,1.26-0.38,1.69c-0.21,0.43-0.53,0.75-0.97,0.94
			C12.03,184.26,11.44,184.36,10.7,184.36z M10.7,182.87c0.42,0,0.71-0.08,0.88-0.24c0.16-0.16,0.25-0.4,0.26-0.73
			c0.05-1.01,0.07-1.96,0.07-2.84c0-0.88-0.02-1.82-0.07-2.81c-0.01-0.33-0.1-0.57-0.27-0.73c-0.17-0.15-0.46-0.23-0.87-0.23
			c-0.42,0-0.72,0.08-0.9,0.25c-0.18,0.16-0.28,0.41-0.29,0.72c-0.02,0.81-0.04,1.7-0.04,2.69c-0.01,0.98,0.01,1.97,0.06,2.94
			c0.01,0.33,0.11,0.57,0.28,0.73C9.98,182.79,10.28,182.87,10.7,182.87z"/>
		<path class="st0" d="M21.93,176.34c0.01,0.36,0.02,0.78,0.03,1.25s0.01,0.97,0.02,1.48c0.01,0.52,0,1.01-0.01,1.49
			c-0.01,0.48-0.02,0.9-0.03,1.26c-0.03,0.9-0.24,1.54-0.63,1.94c-0.39,0.39-0.92,0.59-1.6,0.59c-0.51,0-0.9-0.1-1.17-0.3
			s-0.51-0.49-0.74-0.88h-0.24v1.02h-2v-13.65h2v4.44h0.36c0.23-0.39,0.47-0.68,0.74-0.88c0.27-0.2,0.66-0.3,1.19-0.3
			c0.67,0,1.18,0.19,1.53,0.58C21.7,174.78,21.9,175.43,21.93,176.34z M19.93,181.99c0.05-0.88,0.07-1.82,0.08-2.82
			c0.01-1.01-0.01-1.99-0.06-2.96c-0.01-0.31-0.09-0.54-0.22-0.7c-0.14-0.16-0.38-0.24-0.72-0.24c-0.32,0-0.61,0.08-0.88,0.23
			c-0.27,0.15-0.46,0.37-0.59,0.64v5.9c0.13,0.29,0.33,0.5,0.61,0.65s0.57,0.22,0.86,0.22c0.33,0,0.56-0.07,0.7-0.22
			C19.85,182.54,19.92,182.3,19.93,181.99z"/>
		<path class="st0" d="M27.7,180.43h1.94c0,0.13,0,0.32,0.01,0.6c0.01,0.27,0.01,0.5,0.01,0.68c-0.06,0.94-0.31,1.62-0.77,2.03
			c-0.45,0.41-1.19,0.61-2.22,0.61c-1.08,0-1.85-0.21-2.32-0.62c-0.47-0.42-0.73-1.09-0.79-2.02c-0.01-0.33-0.02-0.73-0.02-1.19
			c-0.01-0.47-0.01-0.95-0.01-1.45s0-0.98,0.01-1.43s0.01-0.84,0.02-1.16c0.06-0.95,0.33-1.64,0.81-2.05s1.24-0.61,2.26-0.61
			c1.03,0,1.79,0.2,2.25,0.61c0.47,0.41,0.72,1.07,0.77,1.98c0,0.13,0,0.36,0.01,0.7s0.01,0.72,0,1.14s-0.01,0.82-0.02,1.19h-4.13
			c0,0.4,0.01,0.8,0.02,1.21s0.02,0.84,0.03,1.28c0.01,0.34,0.1,0.58,0.27,0.73c0.17,0.14,0.44,0.21,0.82,0.21s0.64-0.07,0.78-0.21
			c0.15-0.14,0.23-0.39,0.26-0.74c0.01-0.17,0.02-0.38,0.02-0.63S27.71,180.75,27.7,180.43z M26.64,175.3
			c-0.39,0-0.66,0.07-0.82,0.22s-0.24,0.38-0.26,0.68c-0.01,0.31-0.02,0.61-0.03,0.91s-0.01,0.61-0.01,0.91h2.18
			c0-0.39,0-0.76,0-1.12s-0.01-0.59-0.02-0.71c-0.02-0.33-0.12-0.56-0.28-0.7C27.25,175.37,26.99,175.3,26.64,175.3z"/>
		<path class="st0" d="M31.31,184.2v-10.24h2.01v1.14h0.38c0.09-0.44,0.26-0.75,0.52-0.93c0.26-0.18,0.6-0.26,1.03-0.26
			c0.13,0,0.25,0.01,0.38,0.02s0.24,0.02,0.34,0.02v1.52h-0.7c-0.56,0-1,0.08-1.31,0.25c-0.32,0.16-0.53,0.45-0.63,0.86v7.63h-2.02
			V184.2z"/>
		<path class="st0" d="M38.85,184.32c-0.72,0-1.25-0.17-1.6-0.52s-0.56-0.92-0.63-1.71c0-0.13,0-0.26-0.01-0.41
			c-0.01-0.15,0-0.28,0.01-0.39c0.05-0.65,0.24-1.18,0.59-1.6c0.35-0.41,0.95-0.79,1.82-1.13c0.31-0.13,0.61-0.24,0.91-0.34
			c0.3-0.1,0.63-0.2,0.98-0.29v-1.66c0-0.65-0.36-0.97-1.07-0.97c-0.33,0-0.58,0.07-0.76,0.2c-0.18,0.13-0.27,0.36-0.28,0.67
			c-0.01,0.11-0.02,0.28-0.02,0.5s0,0.44,0,0.64s0.01,0.34,0.02,0.41h-1.89c-0.01-0.16-0.02-0.36-0.02-0.61c0-0.24,0-0.48,0-0.71
			c0.05-0.9,0.28-1.56,0.72-1.97c0.43-0.42,1.2-0.62,2.3-0.62c1.11,0,1.88,0.23,2.3,0.68c0.42,0.46,0.63,1.19,0.63,2.2l-0.02,7.51
			h-1.94v-1.02H40.6c-0.18,0.39-0.4,0.67-0.65,0.86C39.69,184.23,39.33,184.32,38.85,184.32z M39.6,182.91c0.6,0,1.03-0.27,1.3-0.82
			v-2.81c-0.23,0.07-0.46,0.14-0.69,0.22s-0.48,0.19-0.73,0.32c-0.36,0.17-0.6,0.38-0.72,0.64c-0.11,0.26-0.18,0.54-0.19,0.84
			c0,0.25,0.01,0.47,0.02,0.65C38.64,182.59,38.98,182.91,39.6,182.91z"/>
		<path class="st0" d="M44.79,184.2v-10.24h1.96v1.02h0.39c0.23-0.38,0.48-0.67,0.76-0.87s0.67-0.31,1.17-0.31
			c0.69,0,1.22,0.2,1.58,0.6c0.36,0.4,0.54,1.04,0.55,1.93v7.86h-1.96v-8.02c-0.01-0.61-0.33-0.92-0.97-0.92
			c-0.31,0-0.61,0.08-0.9,0.23c-0.3,0.15-0.5,0.37-0.61,0.64v8.07L44.79,184.2L44.79,184.2z"/>
		<path class="st0" d="M53.05,172.21v-1.65h2.17v1.65H53.05z M53.15,184.2v-10.24h1.96v10.24H53.15z"/>
		<path class="st0" d="M58.95,184.32c-0.72,0-1.25-0.17-1.6-0.52s-0.56-0.92-0.63-1.71c0-0.13,0-0.26-0.01-0.41
			c-0.01-0.15,0-0.28,0.01-0.39c0.05-0.65,0.24-1.18,0.59-1.6c0.35-0.41,0.95-0.79,1.82-1.13c0.31-0.13,0.61-0.24,0.91-0.34
			c0.3-0.1,0.63-0.2,0.98-0.29v-1.66c0-0.65-0.36-0.97-1.07-0.97c-0.33,0-0.58,0.07-0.76,0.2c-0.18,0.13-0.27,0.36-0.28,0.67
			c-0.01,0.11-0.02,0.28-0.02,0.5s0,0.44,0,0.64s0.01,0.34,0.02,0.41H57c-0.01-0.16-0.02-0.36-0.02-0.61c0-0.24,0-0.48,0-0.71
			c0.05-0.9,0.28-1.56,0.72-1.97c0.43-0.42,1.2-0.62,2.3-0.62c1.11,0,1.88,0.23,2.3,0.68c0.42,0.46,0.63,1.19,0.63,2.2l-0.02,7.51
			h-1.94v-1.02h-0.29c-0.18,0.39-0.4,0.67-0.65,0.86C59.79,184.23,59.43,184.32,58.95,184.32z M59.7,182.91
			c0.6,0,1.03-0.27,1.3-0.82v-2.81c-0.23,0.07-0.46,0.14-0.69,0.22s-0.48,0.19-0.73,0.32c-0.36,0.17-0.6,0.38-0.72,0.64
			c-0.11,0.26-0.18,0.54-0.19,0.84c0,0.25,0.01,0.47,0.02,0.65C58.74,182.59,59.07,182.91,59.7,182.91z"/>
		<path class="st0" d="M72.94,180.43h1.94c0,0.13,0,0.32,0.01,0.6c0.01,0.27,0.01,0.5,0.01,0.68c-0.06,0.94-0.31,1.62-0.77,2.03
			c-0.45,0.41-1.19,0.61-2.22,0.61c-1.08,0-1.85-0.21-2.32-0.62c-0.47-0.42-0.73-1.09-0.79-2.02c-0.01-0.33-0.02-0.73-0.02-1.19
			c-0.01-0.47-0.01-0.95-0.01-1.45s0-0.98,0.01-1.43s0.01-0.84,0.02-1.16c0.06-0.95,0.33-1.64,0.81-2.05
			c0.48-0.41,1.24-0.61,2.26-0.61c1.03,0,1.79,0.2,2.25,0.61c0.47,0.41,0.72,1.07,0.77,1.98c0,0.13,0,0.36,0.01,0.7
			s0.01,0.72,0,1.14s-0.01,0.82-0.02,1.19h-4.13c0,0.4,0.01,0.8,0.02,1.21c0.01,0.41,0.02,0.84,0.03,1.28
			c0.01,0.34,0.1,0.58,0.27,0.73c0.17,0.14,0.44,0.21,0.82,0.21s0.64-0.07,0.78-0.21c0.15-0.14,0.23-0.39,0.26-0.74
			c0.01-0.17,0.02-0.38,0.02-0.63S72.95,180.75,72.94,180.43z M71.88,175.3c-0.39,0-0.66,0.07-0.82,0.22
			c-0.16,0.15-0.24,0.38-0.26,0.68c-0.01,0.31-0.02,0.61-0.03,0.91s-0.01,0.61-0.01,0.91h2.18c0-0.39,0-0.76,0-1.12
			s-0.01-0.59-0.02-0.71c-0.02-0.33-0.12-0.56-0.28-0.7C72.49,175.37,72.23,175.3,71.88,175.3z"/>
		<path class="st0" d="M83.53,184.36c-1.01,0-1.73-0.21-2.15-0.61c-0.42-0.41-0.65-1.08-0.7-2.01c0-0.26,0-0.51,0-0.73
			c0-0.23,0.01-0.41,0.02-0.56h1.76c-0.01,0.36-0.02,0.66-0.02,0.9c0,0.23,0.01,0.44,0.02,0.61c0.01,0.35,0.1,0.6,0.27,0.73
			c0.17,0.14,0.44,0.2,0.8,0.2c0.41,0,0.71-0.07,0.9-0.21s0.28-0.39,0.28-0.74c0.01-0.3,0.01-0.57,0-0.84
			c0-0.28-0.05-0.51-0.15-0.67s-0.29-0.28-0.56-0.36l-1.11-0.29c-0.75-0.22-1.31-0.51-1.67-0.89s-0.55-0.94-0.56-1.69
			c-0.01-0.26-0.01-0.5,0-0.72c0.01-0.94,0.24-1.62,0.68-2.04s1.21-0.62,2.3-0.62c1,0,1.72,0.2,2.14,0.61
			c0.43,0.4,0.66,1.07,0.69,1.99c0.01,0.09,0.02,0.23,0.02,0.4c0,0.18,0,0.35-0.01,0.52s-0.01,0.3-0.03,0.39h-1.81
			c0.01-0.24,0.02-0.51,0.02-0.82c0-0.31-0.01-0.55-0.02-0.72c-0.01-0.32-0.09-0.55-0.23-0.68c-0.14-0.14-0.4-0.2-0.78-0.2
			c-0.39,0-0.65,0.07-0.8,0.2c-0.15,0.13-0.23,0.37-0.24,0.71c-0.01,0.06-0.02,0.15-0.02,0.27c-0.01,0.13,0,0.3,0.01,0.53
			c0,0.33,0.05,0.59,0.14,0.78c0.1,0.19,0.3,0.32,0.62,0.4l1.01,0.24c0.74,0.18,1.29,0.47,1.66,0.85c0.37,0.39,0.55,0.96,0.55,1.72
			c0,0.14,0,0.26-0.01,0.38c-0.01,0.12-0.01,0.25-0.01,0.4c-0.01,0.91-0.24,1.57-0.7,1.97C85.4,184.16,84.62,184.36,83.53,184.36z"
			/>
		<path class="st0" d="M92.32,180.43h1.94c0,0.13,0,0.32,0.01,0.6c0.01,0.27,0.01,0.5,0.01,0.68c-0.06,0.94-0.31,1.62-0.77,2.03
			c-0.45,0.41-1.19,0.61-2.22,0.61c-1.08,0-1.85-0.21-2.32-0.62c-0.47-0.42-0.73-1.09-0.79-2.02c-0.01-0.33-0.02-0.73-0.02-1.19
			c-0.01-0.47-0.01-0.95-0.01-1.45s0-0.98,0.01-1.43s0.01-0.84,0.02-1.16c0.06-0.95,0.33-1.64,0.81-2.05
			c0.48-0.41,1.24-0.61,2.26-0.61c1.03,0,1.79,0.2,2.25,0.61c0.47,0.41,0.72,1.07,0.77,1.98c0,0.13,0,0.36,0.01,0.7
			s0.01,0.72,0,1.14s-0.01,0.82-0.02,1.19h-4.13c0,0.4,0.01,0.8,0.02,1.21c0.01,0.41,0.02,0.84,0.03,1.28
			c0.01,0.34,0.1,0.58,0.27,0.73c0.17,0.14,0.44,0.21,0.82,0.21s0.64-0.07,0.78-0.21c0.15-0.14,0.23-0.39,0.26-0.74
			c0.01-0.17,0.02-0.38,0.02-0.63S92.33,180.75,92.32,180.43z M91.26,175.3c-0.39,0-0.66,0.07-0.82,0.22
			c-0.16,0.15-0.24,0.38-0.26,0.68c-0.01,0.31-0.02,0.61-0.03,0.91s-0.01,0.61-0.01,0.91h2.18c0-0.39,0-0.76,0-1.12
			s-0.01-0.59-0.02-0.71c-0.02-0.33-0.12-0.56-0.28-0.7C91.87,175.37,91.61,175.3,91.26,175.3z"/>
		<path class="st0" d="M98.92,187.36c-0.95,0-1.71-0.14-2.26-0.41s-0.86-0.64-0.93-1.09c-0.01-0.07-0.02-0.15-0.03-0.26
			c-0.01-0.1-0.01-0.19,0-0.27c0.03-0.29,0.16-0.52,0.38-0.69c0.22-0.18,0.51-0.29,0.86-0.35V184c-0.68-0.13-1.06-0.44-1.13-0.94
			c0-0.1,0-0.18,0-0.25c0-0.06,0-0.13,0-0.2c0.03-0.24,0.15-0.45,0.35-0.63c0.2-0.18,0.46-0.3,0.79-0.34v-0.29
			c-0.42-0.18-0.73-0.47-0.94-0.85c-0.21-0.39-0.32-0.89-0.36-1.5c-0.02-0.48-0.03-0.91-0.03-1.3s0.01-0.8,0.03-1.23
			c0.06-0.95,0.32-1.64,0.8-2.05s1.24-0.61,2.29-0.61c1.37,0,2.25,0.37,2.66,1.11h0.31c0.07-0.63,0.49-0.94,1.26-0.95v1.5h-0.22
			c-0.3,0-0.52,0.08-0.68,0.23s-0.24,0.42-0.24,0.79c0.01,0.56,0.01,1.02,0.01,1.4c-0.01,0.38-0.01,0.75-0.02,1.11
			c-0.06,0.94-0.32,1.62-0.79,2.04c-0.47,0.41-1.23,0.62-2.28,0.62c-0.02,0-0.05,0-0.08,0s-0.05,0-0.08,0
			c-0.47,0-0.78,0.05-0.95,0.14c-0.16,0.1-0.25,0.23-0.25,0.4v0.1c0,0.19,0.13,0.32,0.39,0.38s0.69,0.1,1.28,0.11
			c1.06,0.02,1.85,0.19,2.39,0.5c0.53,0.31,0.85,0.79,0.94,1.44c0.01,0.08,0.02,0.18,0.02,0.3c0,0.12-0.01,0.24-0.02,0.37
			c-0.07,0.5-0.26,0.89-0.57,1.17s-0.72,0.48-1.22,0.6C100.11,187.3,99.54,187.36,98.92,187.36z M98.99,185.96
			c1.02,0,1.6-0.23,1.74-0.7c0.06-0.15,0.05-0.31-0.02-0.48c-0.11-0.4-0.69-0.61-1.72-0.63c-0.52-0.01-0.9,0.04-1.14,0.16
			c-0.24,0.12-0.38,0.3-0.43,0.54c-0.02,0.07-0.03,0.15-0.02,0.23c0.01,0.09,0.01,0.16,0.02,0.21c0.05,0.25,0.19,0.42,0.44,0.52
			C98.11,185.91,98.49,185.96,98.99,185.96z M98.75,180.18c0.35,0,0.63-0.07,0.83-0.22c0.2-0.15,0.31-0.39,0.33-0.72
			c0.02-0.47,0.03-0.94,0.02-1.42s-0.02-1.01-0.04-1.58c-0.03-0.63-0.42-0.94-1.14-0.94c-0.77,0-1.17,0.32-1.18,0.97
			c-0.02,0.57-0.04,1.08-0.04,1.54c-0.01,0.45,0.01,0.92,0.04,1.4c0.01,0.35,0.12,0.6,0.32,0.75
			C98.1,180.1,98.38,180.18,98.75,180.18z"/>
		<path class="st0" d="M106.17,184.36c-0.68,0-1.22-0.2-1.6-0.59c-0.39-0.39-0.58-1.04-0.58-1.94v-7.86h1.98l0.02,8.02
			c0,0.32,0.07,0.55,0.21,0.7s0.38,0.22,0.71,0.22c0.31,0,0.6-0.08,0.88-0.23s0.48-0.37,0.59-0.64v-8.07h2v10.24h-2v-1.02h-0.29
			c-0.24,0.41-0.51,0.71-0.82,0.9C106.95,184.26,106.59,184.36,106.17,184.36z"/>
		<path class="st0" d="M112.29,184.2v-10.24h2.01v1.14h0.38c0.09-0.44,0.26-0.75,0.52-0.93c0.26-0.18,0.6-0.26,1.03-0.26
			c0.13,0,0.25,0.01,0.38,0.02c0.13,0.01,0.24,0.02,0.34,0.02v1.52h-0.7c-0.56,0-1,0.08-1.31,0.25c-0.32,0.16-0.53,0.45-0.63,0.86
			v7.63h-2.02V184.2z"/>
		<path class="st0" d="M119.83,184.32c-0.72,0-1.25-0.17-1.6-0.52s-0.56-0.92-0.63-1.71c0-0.13,0-0.26-0.01-0.41
			c-0.01-0.15,0-0.28,0.01-0.39c0.05-0.65,0.24-1.18,0.59-1.6c0.35-0.41,0.95-0.79,1.82-1.13c0.31-0.13,0.61-0.24,0.91-0.34
			c0.3-0.1,0.63-0.2,0.98-0.29v-1.66c0-0.65-0.36-0.97-1.07-0.97c-0.33,0-0.58,0.07-0.76,0.2c-0.18,0.13-0.27,0.36-0.28,0.67
			c-0.01,0.11-0.02,0.28-0.02,0.5s0,0.44,0,0.64s0.01,0.34,0.02,0.41h-1.89c-0.01-0.16-0.02-0.36-0.02-0.61c0-0.24,0-0.48,0-0.71
			c0.05-0.9,0.28-1.56,0.72-1.97c0.43-0.42,1.2-0.62,2.3-0.62c1.11,0,1.88,0.23,2.3,0.68c0.42,0.46,0.63,1.19,0.63,2.2l-0.02,7.51
			h-1.94v-1.02h-0.29c-0.18,0.39-0.4,0.67-0.65,0.86C120.67,184.23,120.31,184.32,119.83,184.32z M120.58,182.91
			c0.6,0,1.03-0.27,1.3-0.82v-2.81c-0.23,0.07-0.46,0.14-0.69,0.22s-0.48,0.19-0.73,0.32c-0.36,0.17-0.6,0.38-0.72,0.64
			c-0.11,0.26-0.18,0.54-0.19,0.84c0,0.25,0.01,0.47,0.02,0.65C119.62,182.59,119.96,182.91,120.58,182.91z"/>
		<path class="st0" d="M125.77,184.2v-10.24h1.96v1.02h0.39c0.23-0.38,0.48-0.67,0.76-0.87s0.67-0.31,1.17-0.31
			c0.69,0,1.22,0.2,1.58,0.6c0.36,0.4,0.54,1.04,0.55,1.93v7.86h-1.96v-8.02c-0.01-0.61-0.33-0.92-0.97-0.92
			c-0.31,0-0.61,0.08-0.9,0.23c-0.3,0.15-0.5,0.37-0.61,0.64v8.07L125.77,184.2L125.77,184.2z"/>
		<path class="st0" d="M134.06,181.73c-0.01-0.34-0.02-0.75-0.02-1.21c-0.01-0.47-0.01-0.95-0.01-1.45s0-0.98,0.01-1.43
			s0.01-0.84,0.02-1.16c0.07-0.95,0.34-1.64,0.81-2.05s1.22-0.61,2.26-0.61c1.03,0,1.79,0.2,2.25,0.61c0.47,0.4,0.72,1.07,0.75,1.99
			c0.01,0.2,0.01,0.44,0.01,0.71c-0.01,0.27-0.01,0.47-0.03,0.61h-1.93c0.01-0.23,0.01-0.49,0.01-0.79
			c-0.01-0.3-0.01-0.55-0.01-0.75c-0.01-0.31-0.09-0.53-0.25-0.67c-0.15-0.14-0.42-0.21-0.81-0.21s-0.66,0.07-0.82,0.2
			c-0.16,0.14-0.24,0.37-0.26,0.7c-0.03,1.05-0.05,2.01-0.05,2.89s0.02,1.83,0.05,2.84c0.01,0.34,0.1,0.58,0.26,0.73
			c0.16,0.14,0.44,0.21,0.83,0.21s0.65-0.07,0.8-0.22c0.15-0.15,0.23-0.39,0.24-0.73c0-0.2,0-0.42,0.01-0.65s0-0.51-0.01-0.84h1.93
			c0.01,0.14,0.02,0.34,0.03,0.61s0,0.5-0.01,0.69c-0.03,0.93-0.29,1.6-0.75,2.01c-0.47,0.41-1.21,0.61-2.23,0.61
			c-1.08,0-1.85-0.21-2.31-0.62C134.38,183.32,134.12,182.65,134.06,181.73z M137.86,186.69c-0.18,0-0.37-0.01-0.57-0.02
			c-0.2-0.02-0.38-0.04-0.54-0.08l0.17-0.67c0.24,0.03,0.55,0.05,0.94,0.03c0.32,0,0.48-0.1,0.48-0.31c0-0.13-0.05-0.22-0.14-0.27
			c-0.09-0.06-0.2-0.08-0.34-0.08h-1.11l-0.1-0.1V184h0.87v0.61h0.34c0.4,0,0.73,0.09,0.98,0.26c0.26,0.17,0.38,0.43,0.38,0.78
			C139.23,186.34,138.77,186.68,137.86,186.69z"/>
		<path class="st0" d="M143.65,184.32c-0.72,0-1.25-0.17-1.6-0.52s-0.56-0.92-0.63-1.71c0-0.13,0-0.26-0.01-0.41
			c-0.01-0.15,0-0.28,0.01-0.39c0.05-0.65,0.24-1.18,0.59-1.6c0.35-0.41,0.95-0.79,1.82-1.13c0.31-0.13,0.61-0.24,0.91-0.34
			c0.3-0.1,0.63-0.2,0.98-0.29v-1.66c0-0.65-0.36-0.97-1.07-0.97c-0.33,0-0.58,0.07-0.76,0.2c-0.18,0.13-0.27,0.36-0.28,0.67
			c-0.01,0.11-0.02,0.28-0.02,0.5s0,0.44,0,0.64s0.01,0.34,0.02,0.41h-1.89c-0.01-0.16-0.02-0.36-0.02-0.61c0-0.24,0-0.48,0-0.71
			c0.05-0.9,0.28-1.56,0.72-1.97c0.43-0.42,1.2-0.62,2.3-0.62c1.11,0,1.88,0.23,2.3,0.68c0.42,0.46,0.63,1.19,0.63,2.2l-0.02,7.51
			h-1.94v-1.02h-0.29c-0.18,0.39-0.4,0.67-0.65,0.86C144.49,184.23,144.13,184.32,143.65,184.32z M144.4,182.91
			c0.6,0,1.03-0.27,1.3-0.82v-2.81c-0.23,0.07-0.46,0.14-0.69,0.22s-0.48,0.19-0.73,0.32c-0.36,0.17-0.6,0.38-0.72,0.64
			c-0.11,0.26-0.18,0.54-0.19,0.84c0,0.25,0.01,0.47,0.02,0.65C143.44,182.59,143.77,182.91,144.4,182.91z"/>
		<path class="st0" d="M155.5,184.32c-0.72,0-1.25-0.17-1.6-0.52s-0.56-0.92-0.63-1.71c0-0.13,0-0.26-0.01-0.41
			c-0.01-0.15,0-0.28,0.01-0.39c0.05-0.65,0.24-1.18,0.59-1.6c0.35-0.41,0.95-0.79,1.82-1.13c0.31-0.13,0.61-0.24,0.91-0.34
			c0.3-0.1,0.63-0.2,0.98-0.29v-1.66c0-0.65-0.36-0.97-1.07-0.97c-0.33,0-0.58,0.07-0.76,0.2c-0.18,0.13-0.27,0.36-0.28,0.67
			c-0.01,0.11-0.02,0.28-0.02,0.5s0,0.44,0,0.64s0.01,0.34,0.02,0.41h-1.89c-0.01-0.16-0.02-0.36-0.02-0.61c0-0.24,0-0.48,0-0.71
			c0.05-0.9,0.28-1.56,0.72-1.97c0.43-0.42,1.2-0.62,2.3-0.62c1.11,0,1.88,0.23,2.3,0.68c0.42,0.46,0.63,1.19,0.63,2.2l-0.02,7.51
			h-1.94v-1.02h-0.29c-0.18,0.39-0.4,0.67-0.65,0.86C156.35,184.23,155.98,184.32,155.5,184.32z M156.25,182.91
			c0.6,0,1.03-0.27,1.3-0.82v-2.81c-0.23,0.07-0.46,0.14-0.69,0.22s-0.48,0.19-0.73,0.32c-0.36,0.17-0.6,0.38-0.72,0.64
			c-0.11,0.26-0.18,0.54-0.19,0.84c0,0.25,0.01,0.47,0.02,0.65C155.29,182.59,155.63,182.91,156.25,182.91z"/>
		<path class="st0" d="M161.44,184.2v-13.65h1.96v13.65H161.44z"/>
		<path class="st0" d="M165.23,172.21v-1.65h2.17v1.65H165.23z M165.33,184.2v-10.24h1.96v10.24H165.33z"/>
		<path class="st0" d="M169.22,184.2v-10.24h1.98v1.02h0.36c0.22-0.38,0.45-0.67,0.7-0.87s0.63-0.31,1.14-0.31
			c0.48,0,0.88,0.1,1.2,0.31c0.32,0.2,0.56,0.54,0.71,0.99h0.31c0.22-0.38,0.48-0.69,0.78-0.93c0.3-0.24,0.7-0.37,1.2-0.37
			c0.66,0,1.17,0.2,1.53,0.59s0.54,1.04,0.54,1.94v7.86h-1.96v-8.02c0-0.33-0.08-0.57-0.25-0.71s-0.39-0.21-0.67-0.21
			c-0.26,0-0.51,0.08-0.75,0.24s-0.43,0.36-0.56,0.61v8.09h-1.96v-8.02c-0.01-0.61-0.31-0.92-0.9-0.92c-0.31,0-0.59,0.08-0.84,0.23
			c-0.26,0.15-0.44,0.37-0.55,0.64v8.07L169.22,184.2L169.22,184.2z"/>
		<path class="st0" d="M185.67,180.43h1.94c0,0.13,0,0.32,0.01,0.6c0.01,0.27,0.01,0.5,0.01,0.68c-0.06,0.94-0.31,1.62-0.77,2.03
			c-0.45,0.41-1.19,0.61-2.22,0.61c-1.08,0-1.85-0.21-2.32-0.62c-0.47-0.42-0.73-1.09-0.79-2.02c-0.01-0.33-0.02-0.73-0.02-1.19
			c-0.01-0.47-0.01-0.95-0.01-1.45s0-0.98,0.01-1.43s0.01-0.84,0.02-1.16c0.06-0.95,0.33-1.64,0.81-2.05s1.24-0.61,2.26-0.61
			c1.03,0,1.79,0.2,2.25,0.61c0.47,0.41,0.72,1.07,0.77,1.98c0,0.13,0,0.36,0.01,0.7s0.01,0.72,0,1.14s-0.01,0.82-0.02,1.19h-4.13
			c0,0.4,0.01,0.8,0.02,1.21c0.01,0.41,0.02,0.84,0.03,1.28c0.01,0.34,0.1,0.58,0.27,0.73c0.17,0.14,0.44,0.21,0.82,0.21
			s0.64-0.07,0.78-0.21c0.15-0.14,0.23-0.39,0.26-0.74c0.01-0.17,0.02-0.38,0.02-0.63S185.68,180.75,185.67,180.43z M184.61,175.3
			c-0.39,0-0.66,0.07-0.82,0.22s-0.24,0.38-0.26,0.68c-0.01,0.31-0.02,0.61-0.03,0.91s-0.01,0.61-0.01,0.91h2.18
			c0-0.39,0-0.76,0-1.12s-0.01-0.59-0.02-0.71c-0.02-0.33-0.12-0.56-0.28-0.7C185.22,175.37,184.96,175.3,184.61,175.3z"/>
		<path class="st0" d="M189.28,184.2v-10.24h1.96v1.02h0.39c0.23-0.38,0.48-0.67,0.76-0.87s0.67-0.31,1.17-0.31
			c0.69,0,1.22,0.2,1.58,0.6c0.36,0.4,0.54,1.04,0.55,1.93v7.86h-1.96v-8.02c-0.01-0.61-0.33-0.92-0.97-0.92
			c-0.31,0-0.61,0.08-0.9,0.23c-0.3,0.15-0.5,0.37-0.61,0.64v8.07L189.28,184.2L189.28,184.2z"/>
		<path class="st0" d="M201.38,184.36c-1.15,0-1.96-0.2-2.45-0.61c-0.48-0.4-0.73-1.09-0.73-2.06v-6.23h-0.92v-1.5h0.95v-2.9h2.05
			l-0.05,2.9h1.84v1.5h-1.89l0.02,6.45c0,0.39,0.08,0.65,0.26,0.78c0.17,0.13,0.48,0.2,0.92,0.2c0.17,0,0.32-0.01,0.45-0.02
			c0.13-0.01,0.28-0.02,0.45-0.02v1.42C202.03,184.33,201.73,184.36,201.38,184.36z"/>
		<path class="st0" d="M205.56,184.32c-0.72,0-1.25-0.17-1.6-0.52s-0.56-0.92-0.63-1.71c0-0.13,0-0.26-0.01-0.41
			c-0.01-0.15,0-0.28,0.01-0.39c0.05-0.65,0.24-1.18,0.59-1.6c0.35-0.41,0.95-0.79,1.82-1.13c0.31-0.13,0.61-0.24,0.91-0.34
			c0.3-0.1,0.63-0.2,0.98-0.29v-1.66c0-0.65-0.36-0.97-1.07-0.97c-0.33,0-0.58,0.07-0.76,0.2c-0.18,0.13-0.27,0.36-0.28,0.67
			c-0.01,0.11-0.02,0.28-0.02,0.5s0,0.44,0,0.64s0.01,0.34,0.02,0.41h-1.89c-0.01-0.16-0.02-0.36-0.02-0.61c0-0.24,0-0.48,0-0.71
			c0.05-0.9,0.28-1.56,0.72-1.97c0.43-0.42,1.2-0.62,2.3-0.62c1.11,0,1.88,0.23,2.3,0.68c0.42,0.46,0.63,1.19,0.63,2.2l-0.02,7.51
			h-1.94v-1.02h-0.29c-0.18,0.39-0.4,0.67-0.65,0.86C206.4,184.23,206.03,184.32,205.56,184.32z M206.31,182.91
			c0.6,0,1.03-0.27,1.3-0.82v-2.81c-0.23,0.07-0.46,0.14-0.69,0.22s-0.48,0.19-0.73,0.32c-0.36,0.17-0.6,0.38-0.72,0.64
			c-0.11,0.26-0.18,0.54-0.19,0.84c0,0.25,0.01,0.47,0.02,0.65C205.35,182.59,205.68,182.91,206.31,182.91z"/>
		<path class="st0" d="M211.49,184.2v-10.24h2.01v1.14h0.38c0.09-0.44,0.26-0.75,0.52-0.93c0.26-0.18,0.6-0.26,1.03-0.26
			c0.13,0,0.25,0.01,0.38,0.02s0.24,0.02,0.34,0.02v1.52h-0.7c-0.56,0-1,0.08-1.31,0.25c-0.32,0.16-0.53,0.45-0.63,0.86v7.63h-2.02
			V184.2z"/>
		<path class="st0" d="M225.69,180.43h1.94c0,0.13,0,0.32,0.01,0.6c0.01,0.27,0.01,0.5,0.01,0.68c-0.06,0.94-0.31,1.62-0.77,2.03
			c-0.45,0.41-1.19,0.61-2.22,0.61c-1.08,0-1.85-0.21-2.32-0.62c-0.47-0.42-0.73-1.09-0.79-2.02c-0.01-0.33-0.02-0.73-0.02-1.19
			c-0.01-0.47-0.01-0.95-0.01-1.45s0-0.98,0.01-1.43s0.01-0.84,0.02-1.16c0.06-0.95,0.33-1.64,0.81-2.05s1.24-0.61,2.26-0.61
			c1.03,0,1.79,0.2,2.25,0.61c0.47,0.41,0.72,1.07,0.77,1.98c0,0.13,0,0.36,0.01,0.7s0.01,0.72,0,1.14s-0.01,0.82-0.02,1.19h-4.13
			c0,0.4,0.01,0.8,0.02,1.21c0.01,0.41,0.02,0.84,0.03,1.28c0.01,0.34,0.1,0.58,0.27,0.73c0.17,0.14,0.44,0.21,0.82,0.21
			s0.64-0.07,0.78-0.21c0.15-0.14,0.23-0.39,0.26-0.74c0.01-0.17,0.02-0.38,0.02-0.63S225.7,180.75,225.69,180.43z M224.63,175.3
			c-0.39,0-0.66,0.07-0.82,0.22s-0.24,0.38-0.26,0.68c-0.01,0.31-0.02,0.61-0.03,0.91s-0.01,0.61-0.01,0.91h2.18
			c0-0.39,0-0.76,0-1.12s-0.01-0.59-0.02-0.71c-0.02-0.33-0.12-0.56-0.28-0.7C225.24,175.37,224.98,175.3,224.63,175.3z"/>
		<path class="st0" d="M233.43,184.2v-10.24h1.96v1.02h0.39c0.23-0.38,0.48-0.67,0.76-0.87s0.67-0.31,1.17-0.31
			c0.69,0,1.22,0.2,1.58,0.6c0.36,0.4,0.54,1.04,0.55,1.93v7.86h-1.96v-8.02c-0.01-0.61-0.33-0.92-0.97-0.92
			c-0.31,0-0.61,0.08-0.9,0.23c-0.3,0.15-0.5,0.37-0.61,0.64v8.07L233.43,184.2L233.43,184.2z"/>
		<path class="st0" d="M244.02,184.36c-0.68,0-1.22-0.2-1.6-0.59c-0.39-0.39-0.58-1.04-0.58-1.94v-7.86h1.98l0.02,8.02
			c0,0.32,0.07,0.55,0.21,0.7s0.38,0.22,0.71,0.22c0.31,0,0.6-0.08,0.88-0.23s0.48-0.37,0.59-0.64v-8.07h2v10.24h-2v-1.02h-0.29
			c-0.24,0.41-0.51,0.71-0.82,0.9C244.81,184.26,244.45,184.36,244.02,184.36z"/>
		<path class="st0" d="M253.95,184.36c-1.15,0-1.96-0.2-2.45-0.61c-0.48-0.4-0.73-1.09-0.73-2.06v-6.23h-0.92v-1.5h0.95v-2.9h2.05
			l-0.05,2.9h1.84v1.5h-1.89l0.02,6.45c0,0.39,0.08,0.65,0.26,0.78c0.17,0.13,0.48,0.2,0.92,0.2c0.17,0,0.32-0.01,0.45-0.02
			c0.13-0.01,0.28-0.02,0.45-0.02v1.42C254.61,184.33,254.31,184.36,253.95,184.36z"/>
		<path class="st0" d="M256.46,184.2v-10.24h2.01v1.14h0.38c0.09-0.44,0.26-0.75,0.52-0.93c0.26-0.18,0.6-0.26,1.03-0.26
			c0.13,0,0.25,0.01,0.38,0.02s0.24,0.02,0.34,0.02v1.52h-0.7c-0.56,0-1,0.08-1.31,0.25c-0.32,0.16-0.53,0.45-0.63,0.86v7.63h-2.02
			V184.2z"/>
		<path class="st0" d="M262.33,172.21v-1.65h2.17v1.65H262.33z M262.43,184.2v-10.24h1.96v10.24H262.43z"/>
		<path class="st0" d="M266.36,181.73c-0.01-0.34-0.02-0.75-0.02-1.21c-0.01-0.47-0.01-0.95-0.01-1.45s0-0.98,0.01-1.43
			s0.01-0.84,0.02-1.16c0.07-0.95,0.34-1.64,0.81-2.05s1.22-0.61,2.26-0.61c1.03,0,1.79,0.2,2.25,0.61c0.47,0.4,0.72,1.07,0.75,1.99
			c0.01,0.2,0.01,0.44,0.01,0.71c-0.01,0.27-0.01,0.47-0.03,0.61h-1.93c0.01-0.23,0.01-0.49,0.01-0.79
			c-0.01-0.3-0.01-0.55-0.01-0.75c-0.01-0.31-0.09-0.53-0.25-0.67c-0.15-0.14-0.42-0.21-0.81-0.21c-0.39,0-0.66,0.07-0.82,0.2
			c-0.16,0.14-0.24,0.37-0.26,0.7c-0.03,1.05-0.05,2.01-0.05,2.89s0.02,1.83,0.05,2.84c0.01,0.34,0.1,0.58,0.26,0.73
			c0.16,0.14,0.44,0.21,0.83,0.21c0.39,0,0.65-0.07,0.8-0.22s0.23-0.39,0.24-0.73c0-0.2,0-0.42,0.01-0.65s0-0.51-0.01-0.84h1.93
			c0.01,0.14,0.02,0.34,0.03,0.61s0,0.5-0.01,0.69c-0.03,0.93-0.29,1.6-0.75,2.01c-0.47,0.41-1.21,0.61-2.23,0.61
			c-1.08,0-1.85-0.21-2.31-0.62C266.67,183.32,266.41,182.65,266.36,181.73z"/>
		<path class="st0" d="M274.05,172.21v-1.65h2.17v1.65H274.05z M274.15,184.2v-10.24h1.96v10.24H274.15z"/>
		<path class="st0" d="M281.23,184.36c-1.11,0-1.9-0.23-2.36-0.67c-0.46-0.45-0.72-1.2-0.78-2.24c-0.01-0.28-0.02-0.63-0.03-1.03
			s-0.02-0.83-0.02-1.27s0-0.88,0.01-1.31s0.02-0.79,0.04-1.1c0.06-1.07,0.32-1.82,0.78-2.26c0.46-0.44,1.25-0.66,2.36-0.66
			c0.75,0,1.35,0.1,1.79,0.3s0.76,0.51,0.96,0.94c0.2,0.43,0.32,0.99,0.37,1.68c0.01,0.4,0.02,0.88,0.03,1.46
			c0.01,0.57,0.01,1.15,0,1.74c-0.01,0.59-0.01,1.09-0.03,1.51c-0.05,0.69-0.17,1.26-0.38,1.69c-0.21,0.43-0.53,0.75-0.97,0.94
			C282.56,184.26,281.97,184.36,281.23,184.36z M281.23,182.87c0.42,0,0.71-0.08,0.88-0.24c0.16-0.16,0.25-0.4,0.26-0.73
			c0.05-1.01,0.07-1.96,0.07-2.84c0-0.88-0.02-1.82-0.07-2.81c-0.01-0.33-0.1-0.57-0.27-0.73c-0.17-0.15-0.46-0.23-0.87-0.23
			c-0.42,0-0.72,0.08-0.9,0.25c-0.18,0.16-0.28,0.41-0.29,0.72c-0.02,0.81-0.04,1.7-0.04,2.69c-0.01,0.98,0.01,1.97,0.06,2.94
			c0.01,0.33,0.11,0.57,0.28,0.73C280.51,182.79,280.81,182.87,281.23,182.87z"/>
		<path class="st0" d="M286.14,184.2v-10.24h1.96v1.02h0.39c0.23-0.38,0.48-0.67,0.76-0.87s0.67-0.31,1.17-0.31
			c0.69,0,1.22,0.2,1.58,0.6c0.36,0.4,0.54,1.04,0.55,1.93v7.86h-1.96v-8.02c-0.01-0.61-0.33-0.92-0.97-0.92
			c-0.31,0-0.61,0.08-0.9,0.23c-0.3,0.15-0.5,0.37-0.61,0.64v8.07L286.14,184.2L286.14,184.2z"/>
		<path class="st0" d="M296.23,184.32c-0.72,0-1.25-0.17-1.6-0.52s-0.56-0.92-0.63-1.71c0-0.13,0-0.26-0.01-0.41
			c-0.01-0.15,0-0.28,0.01-0.39c0.05-0.65,0.24-1.18,0.59-1.6c0.35-0.41,0.95-0.79,1.82-1.13c0.31-0.13,0.61-0.24,0.91-0.34
			c0.3-0.1,0.63-0.2,0.98-0.29v-1.66c0-0.65-0.36-0.97-1.07-0.97c-0.33,0-0.58,0.07-0.76,0.2c-0.18,0.13-0.27,0.36-0.28,0.67
			c-0.01,0.11-0.02,0.28-0.02,0.5s0,0.44,0,0.64s0.01,0.34,0.02,0.41h-1.89c-0.01-0.16-0.02-0.36-0.02-0.61c0-0.24,0-0.48,0-0.71
			c0.05-0.9,0.28-1.56,0.72-1.97c0.43-0.42,1.2-0.62,2.3-0.62c1.11,0,1.88,0.23,2.3,0.68c0.42,0.46,0.63,1.19,0.63,2.2l-0.02,7.51
			h-1.94v-1.02h-0.29c-0.18,0.39-0.4,0.67-0.65,0.86C297.07,184.23,296.7,184.32,296.23,184.32z M296.98,182.91
			c0.6,0,1.03-0.27,1.3-0.82v-2.81c-0.23,0.07-0.46,0.14-0.69,0.22s-0.48,0.19-0.73,0.32c-0.36,0.17-0.6,0.38-0.72,0.64
			c-0.11,0.26-0.18,0.54-0.19,0.84c0,0.25,0.01,0.47,0.02,0.65C296.02,182.59,296.35,182.91,296.98,182.91z"/>
		<path class="st0" d="M302.16,184.2v-13.65h1.96v13.65H302.16z"/>
	</g>
</g>
</svg>
