<?xml version="1.0" encoding="utf-8"?>
<!-- Generator: Adobe Illustrator 23.0.3, SVG Export Plug-In . SVG Version: 6.00 Build 0)  -->
<svg version="1.1" id="Camada_1" xmlns="http://www.w3.org/2000/svg" xmlns:xlink="http://www.w3.org/1999/xlink" x="0px" y="0px"
	 viewBox="0 0 198.17 139.17" style="enable-background:new 0 0 198.17 139.17;" xml:space="preserve">
<style type="text/css">
	.st0{fill:#352E25;}
</style>
<g>
	<g>
		<g>
			<path class="st0" d="M183.58,29.17H55.67c-8.05,0-14.58-6.53-14.58-14.58S47.61,0,55.67,0h127.92c8.05,0,14.58,6.53,14.58,14.58
				S191.64,29.17,183.58,29.17z"/>
		</g>
		<g>
			<line class="st0" x1="14.67" y1="14.58" x2="14.58" y2="14.58"/>
			<path class="st0" d="M14.67,29.17h-0.08C6.53,29.17,0,22.64,0,14.58S6.53,0,14.58,0s14.62,6.53,14.62,14.58
				S22.72,29.17,14.67,29.17z"/>
		</g>
	</g>
	<g>
		<g>
			<path class="st0" d="M183.58,84.17H55.67c-8.05,0-14.58-6.53-14.58-14.58S47.61,55,55.67,55h127.92
				c8.05,0,14.58,6.53,14.58,14.58S191.64,84.17,183.58,84.17z"/>
		</g>
		<g>
			<line class="st0" x1="14.67" y1="69.58" x2="14.58" y2="69.58"/>
			<path class="st0" d="M14.67,84.17h-0.08C6.53,84.17,0,77.64,0,69.58S6.53,55,14.58,55s14.62,6.53,14.62,14.58
				S22.72,84.17,14.67,84.17z"/>
		</g>
	</g>
	<g>
		<g>
			<path class="st0" d="M183.58,139.17H55.67c-8.05,0-14.58-6.53-14.58-14.58S47.61,110,55.67,110h127.92
				c8.05,0,14.58,6.53,14.58,14.58S191.64,139.17,183.58,139.17z"/>
		</g>
		<g>
			<line class="st0" x1="14.67" y1="124.58" x2="14.58" y2="124.58"/>
			<path class="st0" d="M14.67,139.17h-0.08C6.53,139.17,0,132.64,0,124.58S6.53,110,14.58,110s14.62,6.53,14.62,14.58
				S22.72,139.17,14.67,139.17z"/>
		</g>
	</g>
</g>
</svg>
