<?xml version="1.0" encoding="utf-8"?>
<!-- Generator: Adobe Illustrator 23.0.3, SVG Export Plug-In . SVG Version: 6.00 Build 0)  -->
<svg version="1.1" id="Camada_1" xmlns="http://www.w3.org/2000/svg" xmlns:xlink="http://www.w3.org/1999/xlink" x="0px" y="0px"
	 viewBox="0 0 1344 92.17" style="enable-background:new 0 0 1344 92.17;" xml:space="preserve">
<style type="text/css">
	.st0{fill:#4F6470;}
	.st1{clip-path:url(#SVGID_2_);}
	.st2{fill:#738737;}
	.st3{fill:#7C99AA;}
	.st4{fill:#564B3A;}
</style>
<rect x="-0.5" y="0.59" class="st0" width="1345" height="91"/>
<g>
	<defs>
		
			<rect id="SVGID_1_" x="0" y="0" transform="matrix(-1 -2.222990e-11 2.222990e-11 -1 1344 92.1745)" width="1344" height="92.17"/>
	</defs>
	<clipPath id="SVGID_2_">
		<use xlink:href="#SVGID_1_"  style="overflow:visible;"/>
	</clipPath>
	<g class="st1">
		<polygon class="st0" points="115.38,-1.46 136.19,104.19 80.71,199.64 23.24,222.17 -1.86,189.03 -1.86,-1.46 		"/>
		<polygon class="st3" points="136.19,104.19 229.99,110.35 300.01,22.44 293.4,-1.46 115.38,-1.46 		"/>
		<polygon class="st4" points="311.9,206.26 381.92,222.17 418.91,110.35 407.02,33.04 300.01,22.44 229.99,110.35 		"/>
		<polygon class="st0" points="293.4,-1.46 300.01,22.44 407.02,33.04 449.29,-1.46 		"/>
		<polygon class="st2" points="570.83,-1.46 584.04,96.68 503.46,167.38 418.91,110.35 407.02,33.04 449.29,-1.46 		"/>
		<polygon class="st4" points="584.04,96.68 683.98,122.31 747.09,54.45 733.05,-1.46 570.83,-1.46 		"/>
		<polygon class="st2" points="683.98,122.31 722.88,204.5 813.91,229.24 876.16,122.31 847.8,33.04 747.09,54.45 		"/>
		<polygon class="st3" points="847.8,33.04 891.89,-1.46 733.05,-1.46 747.09,54.45 		"/>
		<polygon class="st4" points="1023.97,-1.46 1012.08,131.14 920.99,189.03 876.16,122.31 847.8,33.04 891.89,-1.46 		"/>
		<polygon class="st0" points="1023.97,-1.46 1146.83,93.78 1224.12,-1.46 		"/>
		<polygon class="st2" points="1146.83,93.78 1166.65,229.24 1073.87,271.94 1012.08,131.14 1023.97,-1.46 		"/>
		<polygon class="st3" points="1146.83,93.78 1285.55,131.14 1342.14,240.73 1342.14,-1.46 1224.12,-1.46 		"/>
	</g>
</g>
</svg>
