<?xml version="1.0" encoding="utf-8"?>
<!-- Generator: Adobe Illustrator 23.0.3, SVG Export Plug-In . SVG Version: 6.00 Build 0)  -->
<svg version="1.1" id="Camada_1" xmlns="http://www.w3.org/2000/svg" xmlns:xlink="http://www.w3.org/1999/xlink" x="0px" y="0px"
	 viewBox="0 0 1921 1081" style="enable-background:new 0 0 1921 1081;" xml:space="preserve">
<style type="text/css">
	.st0{fill:#738737;}
	.st1{fill:#4F6470;}
	.st2{fill:#7C99AA;}
	.st3{fill:#564B3A;}
	.st4{fill:none;stroke:#FCF7F0;stroke-miterlimit:10;}
</style>
<polygon class="st0" points="1752.3,0 1466.23,0 1277.45,0 1050.42,0 818.55,0 644.83,0 422.02,0 167.58,0 0,0 0,203.5 0,478.72 
	56.72,429.68 227.53,321.99 448.45,221.91 601.4,119.45 837.44,104.84 980.28,132.22 1254.97,132.22 1449.24,141.66 1670.16,246.46 
	1820.74,307.69 1921,456.06 1921,258.74 1921,112.87 1921,0 "/>
<g>
	<polygon class="st1" points="167.58,0 197.32,112.87 118.01,214.83 35.87,238.91 0,203.5 0,0 	"/>
	<polygon class="st0" points="35.87,238.91 84.02,321.99 56.72,429.68 0,478.72 0,203.5 	"/>
	<polygon class="st2" points="197.32,112.87 331.38,119.45 431.46,25.53 422.02,0 167.58,0 	"/>
	<polygon class="st0" points="331.38,119.45 448.45,221.91 338.94,350.32 227.53,321.99 197.32,112.87 	"/>
	<polygon class="st3" points="56.72,429.68 236.14,383.89 227.53,321.99 197.32,112.87 118.01,214.83 35.87,238.91 84.02,321.99 	
		"/>
	<polygon class="st3" points="448.45,221.91 548.53,238.91 601.4,119.45 584.41,36.86 431.46,25.53 331.38,119.45 	"/>
	<polygon class="st1" points="422.02,0 431.46,25.53 584.41,36.86 644.83,0 	"/>
	<polygon class="st0" points="818.55,0 837.44,104.84 722.25,180.37 601.4,119.45 584.41,36.86 644.83,0 	"/>
	<polygon class="st3" points="837.44,104.84 980.28,132.22 1070.49,59.73 1050.42,0 818.55,0 	"/>
	<polygon class="st0" points="980.28,132.22 1035.88,220.03 1165.99,246.46 1254.97,132.22 1214.43,36.86 1070.49,59.73 	"/>
	<polygon class="st2" points="1214.43,36.86 1277.45,0 1050.42,0 1070.49,59.73 	"/>
	<polygon class="st3" points="1466.23,0 1449.24,141.66 1319.03,203.5 1254.97,132.22 1214.43,36.86 1277.45,0 	"/>
	<polygon class="st1" points="1466.23,0 1641.84,101.75 1752.3,0 	"/>
	<polygon class="st0" points="1641.84,101.75 1670.16,246.46 1537.56,292.08 1449.24,141.66 1466.23,0 	"/>
	<polygon class="st2" points="1641.84,101.75 1840.11,141.66 1921,258.74 1921,0 1752.3,0 	"/>
	<polygon class="st3" points="1670.16,246.46 1752.3,341.11 1921,258.74 1840.11,141.66 1641.84,101.75 	"/>
	<polygon class="st1" points="1840.11,141.66 1921,112.87 1921,258.74 	"/>
	<polygon class="st0" points="1820.74,307.69 1844.94,419.3 1921,456.06 1921,258.74 	"/>
</g>
<rect x="0.65" class="st4" width="1920.35" height="1081"/>
</svg>
